<?xml version="1.0" encoding="utf-8" ?>
<svg baseProfile="full" height="320px" version="1.1" width="6000px" xmlns="http://www.w3.org/2000/svg" xmlns:ev="http://www.w3.org/2001/xml-events" xmlns:xlink="http://www.w3.org/1999/xlink"><defs /><rect fill="rgb(143,86,59)" height="40px" width="40px" x="5000px" y="0px" /><rect fill="rgb(143,86,59)" height="40px" width="40px" x="5040px" y="0px" /><rect fill="rgb(143,86,59)" height="40px" width="40px" x="5080px" y="0px" /><rect fill="rgb(103,135,73)" height="40px" width="40px" x="80px" y="40px" /><rect fill="rgb(103,135,73)" height="40px" width="40px" x="560px" y="40px" /><rect fill="rgb(103,135,73)" height="40px" width="40px" x="680px" y="40px" /><rect fill="rgb(103,135,73)" height="40px" width="40px" x="1000px" y="40px" /><rect fill="rgb(103,135,73)" height="40px" width="40px" x="1440px" y="40px" /><rect fill="rgb(103,135,73)" height="40px" width="40px" x="1840px" y="40px" /><rect fill="rgb(103,135,73)" height="40px" width="40px" x="1960px" y="40px" /><rect fill="rgb(103,135,73)" height="40px" width="40px" x="2440px" y="40px" /><rect fill="rgb(103,135,73)" height="40px" width="40px" x="2560px" y="40px" /><rect fill="rgb(103,135,73)" height="40px" width="40px" x="2960px" y="40px" /><rect fill="rgb(103,135,73)" height="40px" width="40px" x="3400px" y="40px" /><rect fill="rgb(103,135,73)" height="40px" width="40px" x="3520px" y="40px" /><rect fill="rgb(103,135,73)" height="40px" width="40px" x="3920px" y="40px" /><rect fill="rgb(120,173,70)" height="40px" width="40px" x="4240px" y="40px" /><rect fill="rgb(128,75,50)" height="40px" width="40px" x="4440px" y="40px" /><rect fill="rgb(143,86,59)" height="40px" width="40px" x="4480px" y="40px" /><rect fill="rgb(143,86,59)" height="40px" width="40px" x="4520px" y="40px" /><rect fill="rgb(143,86,59)" height="40px" width="40px" x="4960px" y="40px" /><rect fill="rgb(143,86,59)" height="40px" width="40px" x="5000px" y="40px" /><rect fill="rgb(143,86,59)" height="40px" width="40px" x="5040px" y="40px" /><rect fill="rgb(143,86,59)" height="40px" width="40px" x="5080px" y="40px" /><rect fill="rgb(143,86,59)" height="40px" width="40px" x="5120px" y="40px" /><rect fill="rgb(120,173,70)" height="40px" width="40px" x="5400px" y="40px" /><rect fill="rgb(103,135,73)" height="40px" width="40px" x="5800px" y="40px" /><rect fill="rgb(103,135,73)" height="40px" width="40px" x="0px" y="80px" /><rect fill="rgb(103,135,73)" height="40px" width="40px" x="40px" y="80px" /><rect fill="rgb(103,135,73)" height="40px" width="40px" x="200px" y="80px" /><rect fill="rgb(103,135,73)" height="40px" width="40px" x="240px" y="80px" /><rect fill="rgb(103,135,73)" height="40px" width="40px" x="400px" y="80px" /><rect fill="rgb(103,135,73)" height="40px" width="40px" x="440px" y="80px" /><rect fill="rgb(103,135,73)" height="40px" width="40px" x="600px" y="80px" /><rect fill="rgb(103,135,73)" height="40px" width="40px" x="640px" y="80px" /><rect fill="rgb(103,135,73)" height="40px" width="40px" x="680px" y="80px" /><rect fill="rgb(103,135,73)" height="40px" width="40px" x="760px" y="80px" /><rect fill="rgb(103,135,73)" height="40px" width="40px" x="920px" y="80px" /><rect fill="rgb(103,135,73)" height="40px" width="40px" x="960px" y="80px" /><rect fill="rgb(103,135,73)" height="40px" width="40px" x="1120px" y="80px" /><rect fill="rgb(103,135,73)" height="40px" width="40px" x="1160px" y="80px" /><rect fill="rgb(103,135,73)" height="40px" width="40px" x="1240px" y="80px" /><rect fill="rgb(103,135,73)" height="40px" width="40px" x="1320px" y="80px" /><rect fill="rgb(103,135,73)" height="40px" width="40px" x="1400px" y="80px" /><rect fill="rgb(103,135,73)" height="40px" width="40px" x="1560px" y="80px" /><rect fill="rgb(103,135,73)" height="40px" width="40px" x="1600px" y="80px" /><rect fill="rgb(103,135,73)" height="40px" width="40px" x="1760px" y="80px" /><rect fill="rgb(103,135,73)" height="40px" width="40px" x="1840px" y="80px" /><rect fill="rgb(103,135,73)" height="40px" width="40px" x="1880px" y="80px" /><rect fill="rgb(103,135,73)" height="40px" width="40px" x="1920px" y="80px" /><rect fill="rgb(103,135,73)" height="40px" width="40px" x="2080px" y="80px" /><rect fill="rgb(103,135,73)" height="40px" width="40px" x="2120px" y="80px" /><rect fill="rgb(103,135,73)" height="40px" width="40px" x="2280px" y="80px" /><rect fill="rgb(103,135,73)" height="40px" width="40px" x="2320px" y="80px" /><rect fill="rgb(103,135,73)" height="40px" width="40px" x="2480px" y="80px" /><rect fill="rgb(103,135,73)" height="40px" width="40px" x="2520px" y="80px" /><rect fill="rgb(103,135,73)" height="40px" width="40px" x="2560px" y="80px" /><rect fill="rgb(103,135,73)" height="40px" width="40px" x="2640px" y="80px" /><rect fill="rgb(103,135,73)" height="40px" width="40px" x="2800px" y="80px" /><rect fill="rgb(103,135,73)" height="40px" width="40px" x="2840px" y="80px" /><rect fill="rgb(103,135,73)" height="40px" width="40px" x="3000px" y="80px" /><rect fill="rgb(103,135,73)" height="40px" width="40px" x="3080px" y="80px" /><rect fill="rgb(103,135,73)" height="40px" width="40px" x="3160px" y="80px" /><rect fill="rgb(103,135,73)" height="40px" width="40px" x="3240px" y="80px" /><rect fill="rgb(103,135,73)" height="40px" width="40px" x="3280px" y="80px" /><rect fill="rgb(103,135,73)" height="40px" width="40px" x="3440px" y="80px" /><rect fill="rgb(103,135,73)" height="40px" width="40px" x="3480px" y="80px" /><rect fill="rgb(103,135,73)" height="40px" width="40px" x="3520px" y="80px" /><rect fill="rgb(103,135,73)" height="40px" width="40px" x="3600px" y="80px" /><rect fill="rgb(103,135,73)" height="40px" width="40px" x="3760px" y="80px" /><rect fill="rgb(103,135,73)" height="40px" width="40px" x="3800px" y="80px" /><rect fill="rgb(103,135,73)" height="40px" width="40px" x="3960px" y="80px" /><rect fill="rgb(103,135,73)" height="40px" width="40px" x="4040px" y="80px" /><rect fill="rgb(120,173,70)" height="40px" width="40px" x="4120px" y="80px" /><rect fill="rgb(120,173,70)" height="40px" width="40px" x="4200px" y="80px" /><rect fill="rgb(128,75,50)" height="40px" width="40px" x="4400px" y="80px" /><rect fill="rgb(128,75,50)" height="40px" width="40px" x="4440px" y="80px" /><rect fill="rgb(128,75,50)" height="40px" width="40px" x="4480px" y="80px" /><rect fill="rgb(128,75,50)" height="40px" width="40px" x="4520px" y="80px" /><rect fill="rgb(128,75,50)" height="40px" width="40px" x="4560px" y="80px" /><rect fill="rgb(172,50,50)" height="40px" width="40px" x="4760px" y="80px" /><rect fill="rgb(155,173,183)" height="40px" width="40px" x="5040px" y="80px" /><rect fill="rgb(120,173,70)" height="40px" width="40px" x="5280px" y="80px" /><rect fill="rgb(120,173,70)" height="40px" width="40px" x="5360px" y="80px" /><rect fill="rgb(103,135,73)" height="40px" width="40px" x="5480px" y="80px" /><rect fill="rgb(103,135,73)" height="40px" width="40px" x="5640px" y="80px" /><rect fill="rgb(103,135,73)" height="40px" width="40px" x="5680px" y="80px" /><rect fill="rgb(103,135,73)" height="40px" width="40px" x="5840px" y="80px" /><rect fill="rgb(103,135,73)" height="40px" width="40px" x="5920px" y="80px" /><rect fill="rgb(103,135,73)" height="40px" width="40px" x="40px" y="120px" /><rect fill="rgb(103,135,73)" height="40px" width="40px" x="80px" y="120px" /><rect fill="rgb(103,135,73)" height="40px" width="40px" x="160px" y="120px" /><rect fill="rgb(103,135,73)" height="40px" width="40px" x="200px" y="120px" /><rect fill="rgb(103,135,73)" height="40px" width="40px" x="320px" y="120px" /><rect fill="rgb(103,135,73)" height="40px" width="40px" x="440px" y="120px" /><rect fill="rgb(103,135,73)" height="40px" width="40px" x="480px" y="120px" /><rect fill="rgb(103,135,73)" height="40px" width="40px" x="560px" y="120px" /><rect fill="rgb(103,135,73)" height="40px" width="40px" x="600px" y="120px" /><rect fill="rgb(103,135,73)" height="40px" width="40px" x="680px" y="120px" /><rect fill="rgb(103,135,73)" height="40px" width="40px" x="760px" y="120px" /><rect fill="rgb(103,135,73)" height="40px" width="40px" x="840px" y="120px" /><rect fill="rgb(103,135,73)" height="40px" width="40px" x="960px" y="120px" /><rect fill="rgb(103,135,73)" height="40px" width="40px" x="1000px" y="120px" /><rect fill="rgb(103,135,73)" height="40px" width="40px" x="1080px" y="120px" /><rect fill="rgb(103,135,73)" height="40px" width="40px" x="1120px" y="120px" /><rect fill="rgb(103,135,73)" height="40px" width="40px" x="1240px" y="120px" /><rect fill="rgb(103,135,73)" height="40px" width="40px" x="1320px" y="120px" /><rect fill="rgb(103,135,73)" height="40px" width="40px" x="1400px" y="120px" /><rect fill="rgb(103,135,73)" height="40px" width="40px" x="1440px" y="120px" /><rect fill="rgb(103,135,73)" height="40px" width="40px" x="1520px" y="120px" /><rect fill="rgb(103,135,73)" height="40px" width="40px" x="1560px" y="120px" /><rect fill="rgb(103,135,73)" height="40px" width="40px" x="1680px" y="120px" /><rect fill="rgb(103,135,73)" height="40px" width="40px" x="1760px" y="120px" /><rect fill="rgb(103,135,73)" height="40px" width="40px" x="1840px" y="120px" /><rect fill="rgb(103,135,73)" height="40px" width="40px" x="1920px" y="120px" /><rect fill="rgb(103,135,73)" height="40px" width="40px" x="1960px" y="120px" /><rect fill="rgb(103,135,73)" height="40px" width="40px" x="2040px" y="120px" /><rect fill="rgb(103,135,73)" height="40px" width="40px" x="2080px" y="120px" /><rect fill="rgb(103,135,73)" height="40px" width="40px" x="2200px" y="120px" /><rect fill="rgb(103,135,73)" height="40px" width="40px" x="2320px" y="120px" /><rect fill="rgb(103,135,73)" height="40px" width="40px" x="2360px" y="120px" /><rect fill="rgb(103,135,73)" height="40px" width="40px" x="2440px" y="120px" /><rect fill="rgb(103,135,73)" height="40px" width="40px" x="2480px" y="120px" /><rect fill="rgb(103,135,73)" height="40px" width="40px" x="2560px" y="120px" /><rect fill="rgb(103,135,73)" height="40px" width="40px" x="2640px" y="120px" /><rect fill="rgb(103,135,73)" height="40px" width="40px" x="2720px" y="120px" /><rect fill="rgb(103,135,73)" height="40px" width="40px" x="2840px" y="120px" /><rect fill="rgb(103,135,73)" height="40px" width="40px" x="2880px" y="120px" /><rect fill="rgb(103,135,73)" height="40px" width="40px" x="2960px" y="120px" /><rect fill="rgb(103,135,73)" height="40px" width="40px" x="3000px" y="120px" /><rect fill="rgb(103,135,73)" height="40px" width="40px" x="3080px" y="120px" /><rect fill="rgb(103,135,73)" height="40px" width="40px" x="3160px" y="120px" /><rect fill="rgb(103,135,73)" height="40px" width="40px" x="3280px" y="120px" /><rect fill="rgb(103,135,73)" height="40px" width="40px" x="3320px" y="120px" /><rect fill="rgb(103,135,73)" height="40px" width="40px" x="3400px" y="120px" /><rect fill="rgb(103,135,73)" height="40px" width="40px" x="3440px" y="120px" /><rect fill="rgb(103,135,73)" height="40px" width="40px" x="3520px" y="120px" /><rect fill="rgb(103,135,73)" height="40px" width="40px" x="3600px" y="120px" /><rect fill="rgb(103,135,73)" height="40px" width="40px" x="3680px" y="120px" /><rect fill="rgb(103,135,73)" height="40px" width="40px" x="3800px" y="120px" /><rect fill="rgb(103,135,73)" height="40px" width="40px" x="3840px" y="120px" /><rect fill="rgb(103,135,73)" height="40px" width="40px" x="3920px" y="120px" /><rect fill="rgb(103,135,73)" height="40px" width="40px" x="3960px" y="120px" /><rect fill="rgb(103,135,73)" height="40px" width="40px" x="4040px" y="120px" /><rect fill="rgb(103,135,73)" height="40px" width="40px" x="4120px" y="120px" /><rect fill="rgb(103,135,73)" height="40px" width="40px" x="4200px" y="120px" /><rect fill="rgb(120,173,70)" height="40px" width="40px" x="4240px" y="120px" /><rect fill="rgb(144,153,158)" height="40px" width="40px" x="4480px" y="120px" /><rect fill="rgb(172,50,50)" height="40px" width="40px" x="4520px" y="120px" /><rect fill="rgb(172,50,50)" height="40px" width="40px" x="4720px" y="120px" /><rect fill="rgb(172,50,50)" height="40px" width="40px" x="4760px" y="120px" /><rect fill="rgb(150,43,43)" height="40px" width="40px" x="4800px" y="120px" /><rect fill="rgb(150,43,43)" height="40px" width="40px" x="4960px" y="120px" /><rect fill="rgb(155,173,183)" height="40px" width="40px" x="5040px" y="120px" /><rect fill="rgb(103,135,73)" height="40px" width="40px" x="5280px" y="120px" /><rect fill="rgb(103,135,73)" height="40px" width="40px" x="5400px" y="120px" /><rect fill="rgb(103,135,73)" height="40px" width="40px" x="5480px" y="120px" /><rect fill="rgb(103,135,73)" height="40px" width="40px" x="5560px" y="120px" /><rect fill="rgb(103,135,73)" height="40px" width="40px" x="5680px" y="120px" /><rect fill="rgb(103,135,73)" height="40px" width="40px" x="5720px" y="120px" /><rect fill="rgb(103,135,73)" height="40px" width="40px" x="5800px" y="120px" /><rect fill="rgb(103,135,73)" height="40px" width="40px" x="5840px" y="120px" /><rect fill="rgb(103,135,73)" height="40px" width="40px" x="5920px" y="120px" /><rect fill="rgb(103,135,73)" height="40px" width="40px" x="80px" y="160px" /><rect fill="rgb(103,135,73)" height="40px" width="40px" x="120px" y="160px" /><rect fill="rgb(103,135,73)" height="40px" width="40px" x="160px" y="160px" /><rect fill="rgb(103,135,73)" height="40px" width="40px" x="200px" y="160px" /><rect fill="rgb(103,135,73)" height="40px" width="40px" x="280px" y="160px" /><rect fill="rgb(103,135,73)" height="40px" width="40px" x="360px" y="160px" /><rect fill="rgb(103,135,73)" height="40px" width="40px" x="440px" y="160px" /><rect fill="rgb(103,135,73)" height="40px" width="40px" x="480px" y="160px" /><rect fill="rgb(103,135,73)" height="40px" width="40px" x="520px" y="160px" /><rect fill="rgb(103,135,73)" height="40px" width="40px" x="560px" y="160px" /><rect fill="rgb(103,135,73)" height="40px" width="40px" x="720px" y="160px" /><rect fill="rgb(103,135,73)" height="40px" width="40px" x="800px" y="160px" /><rect fill="rgb(103,135,73)" height="40px" width="40px" x="960px" y="160px" /><rect fill="rgb(103,135,73)" height="40px" width="40px" x="1000px" y="160px" /><rect fill="rgb(103,135,73)" height="40px" width="40px" x="1040px" y="160px" /><rect fill="rgb(103,135,73)" height="40px" width="40px" x="1080px" y="160px" /><rect fill="rgb(103,135,73)" height="40px" width="40px" x="1120px" y="160px" /><rect fill="rgb(103,135,73)" height="40px" width="40px" x="1280px" y="160px" /><rect fill="rgb(103,135,73)" height="40px" width="40px" x="1440px" y="160px" /><rect fill="rgb(103,135,73)" height="40px" width="40px" x="1480px" y="160px" /><rect fill="rgb(103,135,73)" height="40px" width="40px" x="1520px" y="160px" /><rect fill="rgb(103,135,73)" height="40px" width="40px" x="1560px" y="160px" /><rect fill="rgb(103,135,73)" height="40px" width="40px" x="1720px" y="160px" /><rect fill="rgb(103,135,73)" height="40px" width="40px" x="1800px" y="160px" /><rect fill="rgb(103,135,73)" height="40px" width="40px" x="1960px" y="160px" /><rect fill="rgb(103,135,73)" height="40px" width="40px" x="2000px" y="160px" /><rect fill="rgb(103,135,73)" height="40px" width="40px" x="2040px" y="160px" /><rect fill="rgb(103,135,73)" height="40px" width="40px" x="2080px" y="160px" /><rect fill="rgb(103,135,73)" height="40px" width="40px" x="2160px" y="160px" /><rect fill="rgb(103,135,73)" height="40px" width="40px" x="2240px" y="160px" /><rect fill="rgb(103,135,73)" height="40px" width="40px" x="2320px" y="160px" /><rect fill="rgb(103,135,73)" height="40px" width="40px" x="2360px" y="160px" /><rect fill="rgb(103,135,73)" height="40px" width="40px" x="2400px" y="160px" /><rect fill="rgb(103,135,73)" height="40px" width="40px" x="2440px" y="160px" /><rect fill="rgb(103,135,73)" height="40px" width="40px" x="2600px" y="160px" /><rect fill="rgb(103,135,73)" height="40px" width="40px" x="2680px" y="160px" /><rect fill="rgb(103,135,73)" height="40px" width="40px" x="2840px" y="160px" /><rect fill="rgb(103,135,73)" height="40px" width="40px" x="2880px" y="160px" /><rect fill="rgb(103,135,73)" height="40px" width="40px" x="2920px" y="160px" /><rect fill="rgb(103,135,73)" height="40px" width="40px" x="2960px" y="160px" /><rect fill="rgb(103,135,73)" height="40px" width="40px" x="3120px" y="160px" /><rect fill="rgb(103,135,73)" height="40px" width="40px" x="3280px" y="160px" /><rect fill="rgb(103,135,73)" height="40px" width="40px" x="3320px" y="160px" /><rect fill="rgb(103,135,73)" height="40px" width="40px" x="3360px" y="160px" /><rect fill="rgb(103,135,73)" height="40px" width="40px" x="3400px" y="160px" /><rect fill="rgb(103,135,73)" height="40px" width="40px" x="3560px" y="160px" /><rect fill="rgb(103,135,73)" height="40px" width="40px" x="3640px" y="160px" /><rect fill="rgb(103,135,73)" height="40px" width="40px" x="3800px" y="160px" /><rect fill="rgb(103,135,73)" height="40px" width="40px" x="3840px" y="160px" /><rect fill="rgb(103,135,73)" height="40px" width="40px" x="3880px" y="160px" /><rect fill="rgb(103,135,73)" height="40px" width="40px" x="3920px" y="160px" /><rect fill="rgb(103,135,73)" height="40px" width="40px" x="4080px" y="160px" /><rect fill="rgb(103,135,73)" height="40px" width="40px" x="4240px" y="160px" /><rect fill="rgb(150,43,43)" height="40px" width="40px" x="4480px" y="160px" /><rect fill="rgb(172,50,50)" height="40px" width="40px" x="4520px" y="160px" /><rect fill="rgb(172,50,50)" height="40px" width="40px" x="4560px" y="160px" /><rect fill="rgb(240,234,232)" height="40px" width="40px" x="4760px" y="160px" /><rect fill="rgb(150,43,43)" height="40px" width="40px" x="4920px" y="160px" /><rect fill="rgb(150,43,43)" height="40px" width="40px" x="4960px" y="160px" /><rect fill="rgb(150,43,43)" height="40px" width="40px" x="5000px" y="160px" /><rect fill="rgb(155,173,183)" height="40px" width="40px" x="5080px" y="160px" /><rect fill="rgb(103,135,73)" height="40px" width="40px" x="5280px" y="160px" /><rect fill="rgb(103,135,73)" height="40px" width="40px" x="5320px" y="160px" /><rect fill="rgb(103,135,73)" height="40px" width="40px" x="5440px" y="160px" /><rect fill="rgb(103,135,73)" height="40px" width="40px" x="5520px" y="160px" /><rect fill="rgb(103,135,73)" height="40px" width="40px" x="5600px" y="160px" /><rect fill="rgb(103,135,73)" height="40px" width="40px" x="5680px" y="160px" /><rect fill="rgb(103,135,73)" height="40px" width="40px" x="5720px" y="160px" /><rect fill="rgb(103,135,73)" height="40px" width="40px" x="5760px" y="160px" /><rect fill="rgb(103,135,73)" height="40px" width="40px" x="5800px" y="160px" /><rect fill="rgb(103,135,73)" height="40px" width="40px" x="5960px" y="160px" /><rect fill="rgb(103,135,73)" height="40px" width="40px" x="0px" y="200px" /><rect fill="rgb(103,135,73)" height="40px" width="40px" x="80px" y="200px" /><rect fill="rgb(103,135,73)" height="40px" width="40px" x="160px" y="200px" /><rect fill="rgb(103,135,73)" height="40px" width="40px" x="200px" y="200px" /><rect fill="rgb(103,135,73)" height="40px" width="40px" x="240px" y="200px" /><rect fill="rgb(103,135,73)" height="40px" width="40px" x="280px" y="200px" /><rect fill="rgb(103,135,73)" height="40px" width="40px" x="360px" y="200px" /><rect fill="rgb(103,135,73)" height="40px" width="40px" x="400px" y="200px" /><rect fill="rgb(103,135,73)" height="40px" width="40px" x="440px" y="200px" /><rect fill="rgb(103,135,73)" height="40px" width="40px" x="480px" y="200px" /><rect fill="rgb(103,135,73)" height="40px" width="40px" x="560px" y="200px" /><rect fill="rgb(103,135,73)" height="40px" width="40px" x="640px" y="200px" /><rect fill="rgb(103,135,73)" height="40px" width="40px" x="720px" y="200px" /><rect fill="rgb(103,135,73)" height="40px" width="40px" x="800px" y="200px" /><rect fill="rgb(103,135,73)" height="40px" width="40px" x="920px" y="200px" /><rect fill="rgb(103,135,73)" height="40px" width="40px" x="960px" y="200px" /><rect fill="rgb(103,135,73)" height="40px" width="40px" x="1000px" y="200px" /><rect fill="rgb(103,135,73)" height="40px" width="40px" x="1080px" y="200px" /><rect fill="rgb(103,135,73)" height="40px" width="40px" x="1120px" y="200px" /><rect fill="rgb(103,135,73)" height="40px" width="40px" x="1160px" y="200px" /><rect fill="rgb(103,135,73)" height="40px" width="40px" x="1200px" y="200px" /><rect fill="rgb(103,135,73)" height="40px" width="40px" x="1280px" y="200px" /><rect fill="rgb(103,135,73)" height="40px" width="40px" x="1360px" y="200px" /><rect fill="rgb(103,135,73)" height="40px" width="40px" x="1440px" y="200px" /><rect fill="rgb(103,135,73)" height="40px" width="40px" x="1520px" y="200px" /><rect fill="rgb(103,135,73)" height="40px" width="40px" x="1560px" y="200px" /><rect fill="rgb(103,135,73)" height="40px" width="40px" x="1600px" y="200px" /><rect fill="rgb(103,135,73)" height="40px" width="40px" x="1720px" y="200px" /><rect fill="rgb(103,135,73)" height="40px" width="40px" x="1800px" y="200px" /><rect fill="rgb(103,135,73)" height="40px" width="40px" x="1880px" y="200px" /><rect fill="rgb(103,135,73)" height="40px" width="40px" x="1960px" y="200px" /><rect fill="rgb(103,135,73)" height="40px" width="40px" x="2040px" y="200px" /><rect fill="rgb(103,135,73)" height="40px" width="40px" x="2080px" y="200px" /><rect fill="rgb(103,135,73)" height="40px" width="40px" x="2120px" y="200px" /><rect fill="rgb(103,135,73)" height="40px" width="40px" x="2160px" y="200px" /><rect fill="rgb(103,135,73)" height="40px" width="40px" x="2240px" y="200px" /><rect fill="rgb(103,135,73)" height="40px" width="40px" x="2280px" y="200px" /><rect fill="rgb(103,135,73)" height="40px" width="40px" x="2320px" y="200px" /><rect fill="rgb(103,135,73)" height="40px" width="40px" x="2360px" y="200px" /><rect fill="rgb(103,135,73)" height="40px" width="40px" x="2440px" y="200px" /><rect fill="rgb(103,135,73)" height="40px" width="40px" x="2520px" y="200px" /><rect fill="rgb(103,135,73)" height="40px" width="40px" x="2600px" y="200px" /><rect fill="rgb(103,135,73)" height="40px" width="40px" x="2680px" y="200px" /><rect fill="rgb(103,135,73)" height="40px" width="40px" x="2800px" y="200px" /><rect fill="rgb(103,135,73)" height="40px" width="40px" x="2840px" y="200px" /><rect fill="rgb(103,135,73)" height="40px" width="40px" x="2880px" y="200px" /><rect fill="rgb(103,135,73)" height="40px" width="40px" x="2960px" y="200px" /><rect fill="rgb(103,135,73)" height="40px" width="40px" x="3040px" y="200px" /><rect fill="rgb(103,135,73)" height="40px" width="40px" x="3120px" y="200px" /><rect fill="rgb(103,135,73)" height="40px" width="40px" x="3200px" y="200px" /><rect fill="rgb(103,135,73)" height="40px" width="40px" x="3240px" y="200px" /><rect fill="rgb(103,135,73)" height="40px" width="40px" x="3280px" y="200px" /><rect fill="rgb(103,135,73)" height="40px" width="40px" x="3320px" y="200px" /><rect fill="rgb(103,135,73)" height="40px" width="40px" x="3400px" y="200px" /><rect fill="rgb(103,135,73)" height="40px" width="40px" x="3480px" y="200px" /><rect fill="rgb(103,135,73)" height="40px" width="40px" x="3560px" y="200px" /><rect fill="rgb(103,135,73)" height="40px" width="40px" x="3640px" y="200px" /><rect fill="rgb(103,135,73)" height="40px" width="40px" x="3760px" y="200px" /><rect fill="rgb(103,135,73)" height="40px" width="40px" x="3800px" y="200px" /><rect fill="rgb(103,135,73)" height="40px" width="40px" x="3840px" y="200px" /><rect fill="rgb(103,135,73)" height="40px" width="40px" x="3920px" y="200px" /><rect fill="rgb(103,135,73)" height="40px" width="40px" x="4000px" y="200px" /><rect fill="rgb(103,135,73)" height="40px" width="40px" x="4080px" y="200px" /><rect fill="rgb(103,135,73)" height="40px" width="40px" x="4160px" y="200px" /><rect fill="rgb(103,135,73)" height="40px" width="40px" x="4240px" y="200px" /><rect fill="rgb(144,153,158)" height="40px" width="40px" x="4480px" y="200px" /><rect fill="rgb(240,234,232)" height="40px" width="40px" x="4520px" y="200px" /><rect fill="rgb(240,234,232)" height="40px" width="40px" x="4760px" y="200px" /><rect fill="rgb(203,195,192)" height="40px" width="40px" x="4960px" y="200px" /><rect fill="rgb(155,173,183)" height="40px" width="40px" x="5080px" y="200px" /><rect fill="rgb(103,135,73)" height="40px" width="40px" x="5320px" y="200px" /><rect fill="rgb(103,135,73)" height="40px" width="40px" x="5440px" y="200px" /><rect fill="rgb(103,135,73)" height="40px" width="40px" x="5520px" y="200px" /><rect fill="rgb(103,135,73)" height="40px" width="40px" x="5640px" y="200px" /><rect fill="rgb(103,135,73)" height="40px" width="40px" x="5680px" y="200px" /><rect fill="rgb(103,135,73)" height="40px" width="40px" x="5720px" y="200px" /><rect fill="rgb(103,135,73)" height="40px" width="40px" x="5800px" y="200px" /><rect fill="rgb(103,135,73)" height="40px" width="40px" x="5880px" y="200px" /><rect fill="rgb(103,135,73)" height="40px" width="40px" x="5960px" y="200px" /><rect fill="rgb(103,135,73)" height="40px" width="40px" x="0px" y="240px" /><rect fill="rgb(103,135,73)" height="40px" width="40px" x="40px" y="240px" /><rect fill="rgb(103,135,73)" height="40px" width="40px" x="80px" y="240px" /><rect fill="rgb(103,135,73)" height="40px" width="40px" x="120px" y="240px" /><rect fill="rgb(103,135,73)" height="40px" width="40px" x="160px" y="240px" /><rect fill="rgb(103,135,73)" height="40px" width="40px" x="200px" y="240px" /><rect fill="rgb(103,135,73)" height="40px" width="40px" x="240px" y="240px" /><rect fill="rgb(103,135,73)" height="40px" width="40px" x="280px" y="240px" /><rect fill="rgb(103,135,73)" height="40px" width="40px" x="320px" y="240px" /><rect fill="rgb(103,135,73)" height="40px" width="40px" x="360px" y="240px" /><rect fill="rgb(103,135,73)" height="40px" width="40px" x="400px" y="240px" /><rect fill="rgb(103,135,73)" height="40px" width="40px" x="440px" y="240px" /><rect fill="rgb(103,135,73)" height="40px" width="40px" x="480px" y="240px" /><rect fill="rgb(103,135,73)" height="40px" width="40px" x="520px" y="240px" /><rect fill="rgb(103,135,73)" height="40px" width="40px" x="560px" y="240px" /><rect fill="rgb(103,135,73)" height="40px" width="40px" x="600px" y="240px" /><rect fill="rgb(103,135,73)" height="40px" width="40px" x="640px" y="240px" /><rect fill="rgb(103,135,73)" height="40px" width="40px" x="680px" y="240px" /><rect fill="rgb(103,135,73)" height="40px" width="40px" x="720px" y="240px" /><rect fill="rgb(103,135,73)" height="40px" width="40px" x="760px" y="240px" /><rect fill="rgb(103,135,73)" height="40px" width="40px" x="800px" y="240px" /><rect fill="rgb(103,135,73)" height="40px" width="40px" x="840px" y="240px" /><rect fill="rgb(103,135,73)" height="40px" width="40px" x="880px" y="240px" /><rect fill="rgb(103,135,73)" height="40px" width="40px" x="920px" y="240px" /><rect fill="rgb(103,135,73)" height="40px" width="40px" x="960px" y="240px" /><rect fill="rgb(103,135,73)" height="40px" width="40px" x="1000px" y="240px" /><rect fill="rgb(103,135,73)" height="40px" width="40px" x="1040px" y="240px" /><rect fill="rgb(103,135,73)" height="40px" width="40px" x="1080px" y="240px" /><rect fill="rgb(103,135,73)" height="40px" width="40px" x="1120px" y="240px" /><rect fill="rgb(103,135,73)" height="40px" width="40px" x="1160px" y="240px" /><rect fill="rgb(103,135,73)" height="40px" width="40px" x="1200px" y="240px" /><rect fill="rgb(103,135,73)" height="40px" width="40px" x="1240px" y="240px" /><rect fill="rgb(103,135,73)" height="40px" width="40px" x="1280px" y="240px" /><rect fill="rgb(103,135,73)" height="40px" width="40px" x="1320px" y="240px" /><rect fill="rgb(103,135,73)" height="40px" width="40px" x="1360px" y="240px" /><rect fill="rgb(103,135,73)" height="40px" width="40px" x="1400px" y="240px" /><rect fill="rgb(103,135,73)" height="40px" width="40px" x="1440px" y="240px" /><rect fill="rgb(103,135,73)" height="40px" width="40px" x="1480px" y="240px" /><rect fill="rgb(103,135,73)" height="40px" width="40px" x="1520px" y="240px" /><rect fill="rgb(103,135,73)" height="40px" width="40px" x="1560px" y="240px" /><rect fill="rgb(103,135,73)" height="40px" width="40px" x="1600px" y="240px" /><rect fill="rgb(103,135,73)" height="40px" width="40px" x="1640px" y="240px" /><rect fill="rgb(103,135,73)" height="40px" width="40px" x="1680px" y="240px" /><rect fill="rgb(103,135,73)" height="40px" width="40px" x="1720px" y="240px" /><rect fill="rgb(103,135,73)" height="40px" width="40px" x="1760px" y="240px" /><rect fill="rgb(103,135,73)" height="40px" width="40px" x="1800px" y="240px" /><rect fill="rgb(103,135,73)" height="40px" width="40px" x="1840px" y="240px" /><rect fill="rgb(103,135,73)" height="40px" width="40px" x="1880px" y="240px" /><rect fill="rgb(103,135,73)" height="40px" width="40px" x="1920px" y="240px" /><rect fill="rgb(103,135,73)" height="40px" width="40px" x="1960px" y="240px" /><rect fill="rgb(103,135,73)" height="40px" width="40px" x="2000px" y="240px" /><rect fill="rgb(103,135,73)" height="40px" width="40px" x="2040px" y="240px" /><rect fill="rgb(103,135,73)" height="40px" width="40px" x="2080px" y="240px" /><rect fill="rgb(103,135,73)" height="40px" width="40px" x="2120px" y="240px" /><rect fill="rgb(103,135,73)" height="40px" width="40px" x="2160px" y="240px" /><rect fill="rgb(103,135,73)" height="40px" width="40px" x="2200px" y="240px" /><rect fill="rgb(103,135,73)" height="40px" width="40px" x="2240px" y="240px" /><rect fill="rgb(103,135,73)" height="40px" width="40px" x="2280px" y="240px" /><rect fill="rgb(103,135,73)" height="40px" width="40px" x="2320px" y="240px" /><rect fill="rgb(103,135,73)" height="40px" width="40px" x="2360px" y="240px" /><rect fill="rgb(103,135,73)" height="40px" width="40px" x="2400px" y="240px" /><rect fill="rgb(103,135,73)" height="40px" width="40px" x="2440px" y="240px" /><rect fill="rgb(103,135,73)" height="40px" width="40px" x="2480px" y="240px" /><rect fill="rgb(103,135,73)" height="40px" width="40px" x="2520px" y="240px" /><rect fill="rgb(103,135,73)" height="40px" width="40px" x="2560px" y="240px" /><rect fill="rgb(103,135,73)" height="40px" width="40px" x="2600px" y="240px" /><rect fill="rgb(103,135,73)" height="40px" width="40px" x="2640px" y="240px" /><rect fill="rgb(103,135,73)" height="40px" width="40px" x="2680px" y="240px" /><rect fill="rgb(103,135,73)" height="40px" width="40px" x="2720px" y="240px" /><rect fill="rgb(103,135,73)" height="40px" width="40px" x="2760px" y="240px" /><rect fill="rgb(103,135,73)" height="40px" width="40px" x="2800px" y="240px" /><rect fill="rgb(103,135,73)" height="40px" width="40px" x="2840px" y="240px" /><rect fill="rgb(103,135,73)" height="40px" width="40px" x="2880px" y="240px" /><rect fill="rgb(103,135,73)" height="40px" width="40px" x="2920px" y="240px" /><rect fill="rgb(103,135,73)" height="40px" width="40px" x="2960px" y="240px" /><rect fill="rgb(103,135,73)" height="40px" width="40px" x="3000px" y="240px" /><rect fill="rgb(103,135,73)" height="40px" width="40px" x="3040px" y="240px" /><rect fill="rgb(103,135,73)" height="40px" width="40px" x="3080px" y="240px" /><rect fill="rgb(103,135,73)" height="40px" width="40px" x="3120px" y="240px" /><rect fill="rgb(103,135,73)" height="40px" width="40px" x="3160px" y="240px" /><rect fill="rgb(103,135,73)" height="40px" width="40px" x="3200px" y="240px" /><rect fill="rgb(103,135,73)" height="40px" width="40px" x="3240px" y="240px" /><rect fill="rgb(103,135,73)" height="40px" width="40px" x="3280px" y="240px" /><rect fill="rgb(103,135,73)" height="40px" width="40px" x="3320px" y="240px" /><rect fill="rgb(103,135,73)" height="40px" width="40px" x="3360px" y="240px" /><rect fill="rgb(103,135,73)" height="40px" width="40px" x="3400px" y="240px" /><rect fill="rgb(103,135,73)" height="40px" width="40px" x="3440px" y="240px" /><rect fill="rgb(103,135,73)" height="40px" width="40px" x="3480px" y="240px" /><rect fill="rgb(103,135,73)" height="40px" width="40px" x="3520px" y="240px" /><rect fill="rgb(103,135,73)" height="40px" width="40px" x="3560px" y="240px" /><rect fill="rgb(103,135,73)" height="40px" width="40px" x="3600px" y="240px" /><rect fill="rgb(103,135,73)" height="40px" width="40px" x="3640px" y="240px" /><rect fill="rgb(103,135,73)" height="40px" width="40px" x="3680px" y="240px" /><rect fill="rgb(103,135,73)" height="40px" width="40px" x="3720px" y="240px" /><rect fill="rgb(103,135,73)" height="40px" width="40px" x="3760px" y="240px" /><rect fill="rgb(103,135,73)" height="40px" width="40px" x="3800px" y="240px" /><rect fill="rgb(103,135,73)" height="40px" width="40px" x="3840px" y="240px" /><rect fill="rgb(103,135,73)" height="40px" width="40px" x="3880px" y="240px" /><rect fill="rgb(103,135,73)" height="40px" width="40px" x="3920px" y="240px" /><rect fill="rgb(103,135,73)" height="40px" width="40px" x="3960px" y="240px" /><rect fill="rgb(103,135,73)" height="40px" width="40px" x="4000px" y="240px" /><rect fill="rgb(103,135,73)" height="40px" width="40px" x="4040px" y="240px" /><rect fill="rgb(103,135,73)" height="40px" width="40px" x="4080px" y="240px" /><rect fill="rgb(103,135,73)" height="40px" width="40px" x="4120px" y="240px" /><rect fill="rgb(103,135,73)" height="40px" width="40px" x="4160px" y="240px" /><rect fill="rgb(103,135,73)" height="40px" width="40px" x="4200px" y="240px" /><rect fill="rgb(103,135,73)" height="40px" width="40px" x="4240px" y="240px" /><rect fill="rgb(103,135,73)" height="40px" width="40px" x="4280px" y="240px" /><rect fill="rgb(103,135,73)" height="40px" width="40px" x="4320px" y="240px" /><rect fill="rgb(120,173,70)" height="40px" width="40px" x="4360px" y="240px" /><rect fill="rgb(120,173,70)" height="40px" width="40px" x="4400px" y="240px" /><rect fill="rgb(120,173,70)" height="40px" width="40px" x="4440px" y="240px" /><rect fill="rgb(120,173,70)" height="40px" width="40px" x="4480px" y="240px" /><rect fill="rgb(120,173,70)" height="40px" width="40px" x="4520px" y="240px" /><rect fill="rgb(120,173,70)" height="40px" width="40px" x="4560px" y="240px" /><rect fill="rgb(120,173,70)" height="40px" width="40px" x="4600px" y="240px" /><rect fill="rgb(120,173,70)" height="40px" width="40px" x="4640px" y="240px" /><rect fill="rgb(120,173,70)" height="40px" width="40px" x="4680px" y="240px" /><rect fill="rgb(120,173,70)" height="40px" width="40px" x="4720px" y="240px" /><rect fill="rgb(120,173,70)" height="40px" width="40px" x="4760px" y="240px" /><rect fill="rgb(120,173,70)" height="40px" width="40px" x="4800px" y="240px" /><rect fill="rgb(120,173,70)" height="40px" width="40px" x="4840px" y="240px" /><rect fill="rgb(120,173,70)" height="40px" width="40px" x="4880px" y="240px" /><rect fill="rgb(120,173,70)" height="40px" width="40px" x="4920px" y="240px" /><rect fill="rgb(120,173,70)" height="40px" width="40px" x="4960px" y="240px" /><rect fill="rgb(120,173,70)" height="40px" width="40px" x="5000px" y="240px" /><rect fill="rgb(120,173,70)" height="40px" width="40px" x="5040px" y="240px" /><rect fill="rgb(120,173,70)" height="40px" width="40px" x="5080px" y="240px" /><rect fill="rgb(120,173,70)" height="40px" width="40px" x="5120px" y="240px" /><rect fill="rgb(103,135,73)" height="40px" width="40px" x="5160px" y="240px" /><rect fill="rgb(103,135,73)" height="40px" width="40px" x="5200px" y="240px" /><rect fill="rgb(103,135,73)" height="40px" width="40px" x="5240px" y="240px" /><rect fill="rgb(103,135,73)" height="40px" width="40px" x="5280px" y="240px" /><rect fill="rgb(103,135,73)" height="40px" width="40px" x="5320px" y="240px" /><rect fill="rgb(103,135,73)" height="40px" width="40px" x="5360px" y="240px" /><rect fill="rgb(103,135,73)" height="40px" width="40px" x="5400px" y="240px" /><rect fill="rgb(103,135,73)" height="40px" width="40px" x="5440px" y="240px" /><rect fill="rgb(103,135,73)" height="40px" width="40px" x="5480px" y="240px" /><rect fill="rgb(103,135,73)" height="40px" width="40px" x="5520px" y="240px" /><rect fill="rgb(103,135,73)" height="40px" width="40px" x="5560px" y="240px" /><rect fill="rgb(103,135,73)" height="40px" width="40px" x="5600px" y="240px" /><rect fill="rgb(103,135,73)" height="40px" width="40px" x="5640px" y="240px" /><rect fill="rgb(103,135,73)" height="40px" width="40px" x="5680px" y="240px" /><rect fill="rgb(103,135,73)" height="40px" width="40px" x="5720px" y="240px" /><rect fill="rgb(103,135,73)" height="40px" width="40px" x="5760px" y="240px" /><rect fill="rgb(103,135,73)" height="40px" width="40px" x="5800px" y="240px" /><rect fill="rgb(103,135,73)" height="40px" width="40px" x="5840px" y="240px" /><rect fill="rgb(103,135,73)" height="40px" width="40px" x="5880px" y="240px" /><rect fill="rgb(103,135,73)" height="40px" width="40px" x="5920px" y="240px" /><rect fill="rgb(103,135,73)" height="40px" width="40px" x="5960px" y="240px" /><rect fill="rgb(103,135,73)" height="40px" width="40px" x="0px" y="280px" /><rect fill="rgb(103,135,73)" height="40px" width="40px" x="40px" y="280px" /><rect fill="rgb(103,135,73)" height="40px" width="40px" x="80px" y="280px" /><rect fill="rgb(103,135,73)" height="40px" width="40px" x="120px" y="280px" /><rect fill="rgb(103,135,73)" height="40px" width="40px" x="160px" y="280px" /><rect fill="rgb(103,135,73)" height="40px" width="40px" x="200px" y="280px" /><rect fill="rgb(103,135,73)" height="40px" width="40px" x="240px" y="280px" /><rect fill="rgb(103,135,73)" height="40px" width="40px" x="280px" y="280px" /><rect fill="rgb(103,135,73)" height="40px" width="40px" x="320px" y="280px" /><rect fill="rgb(103,135,73)" height="40px" width="40px" x="360px" y="280px" /><rect fill="rgb(103,135,73)" height="40px" width="40px" x="400px" y="280px" /><rect fill="rgb(103,135,73)" height="40px" width="40px" x="440px" y="280px" /><rect fill="rgb(103,135,73)" height="40px" width="40px" x="480px" y="280px" /><rect fill="rgb(103,135,73)" height="40px" width="40px" x="520px" y="280px" /><rect fill="rgb(103,135,73)" height="40px" width="40px" x="560px" y="280px" /><rect fill="rgb(103,135,73)" height="40px" width="40px" x="600px" y="280px" /><rect fill="rgb(103,135,73)" height="40px" width="40px" x="640px" y="280px" /><rect fill="rgb(103,135,73)" height="40px" width="40px" x="680px" y="280px" /><rect fill="rgb(103,135,73)" height="40px" width="40px" x="720px" y="280px" /><rect fill="rgb(103,135,73)" height="40px" width="40px" x="760px" y="280px" /><rect fill="rgb(103,135,73)" height="40px" width="40px" x="800px" y="280px" /><rect fill="rgb(103,135,73)" height="40px" width="40px" x="840px" y="280px" /><rect fill="rgb(103,135,73)" height="40px" width="40px" x="880px" y="280px" /><rect fill="rgb(103,135,73)" height="40px" width="40px" x="920px" y="280px" /><rect fill="rgb(103,135,73)" height="40px" width="40px" x="960px" y="280px" /><rect fill="rgb(103,135,73)" height="40px" width="40px" x="1000px" y="280px" /><rect fill="rgb(103,135,73)" height="40px" width="40px" x="1040px" y="280px" /><rect fill="rgb(103,135,73)" height="40px" width="40px" x="1080px" y="280px" /><rect fill="rgb(103,135,73)" height="40px" width="40px" x="1120px" y="280px" /><rect fill="rgb(103,135,73)" height="40px" width="40px" x="1160px" y="280px" /><rect fill="rgb(103,135,73)" height="40px" width="40px" x="1200px" y="280px" /><rect fill="rgb(103,135,73)" height="40px" width="40px" x="1240px" y="280px" /><rect fill="rgb(103,135,73)" height="40px" width="40px" x="1280px" y="280px" /><rect fill="rgb(103,135,73)" height="40px" width="40px" x="1320px" y="280px" /><rect fill="rgb(103,135,73)" height="40px" width="40px" x="1360px" y="280px" /><rect fill="rgb(103,135,73)" height="40px" width="40px" x="1400px" y="280px" /><rect fill="rgb(103,135,73)" height="40px" width="40px" x="1440px" y="280px" /><rect fill="rgb(103,135,73)" height="40px" width="40px" x="1480px" y="280px" /><rect fill="rgb(103,135,73)" height="40px" width="40px" x="1520px" y="280px" /><rect fill="rgb(103,135,73)" height="40px" width="40px" x="1560px" y="280px" /><rect fill="rgb(103,135,73)" height="40px" width="40px" x="1600px" y="280px" /><rect fill="rgb(103,135,73)" height="40px" width="40px" x="1640px" y="280px" /><rect fill="rgb(103,135,73)" height="40px" width="40px" x="1680px" y="280px" /><rect fill="rgb(103,135,73)" height="40px" width="40px" x="1720px" y="280px" /><rect fill="rgb(103,135,73)" height="40px" width="40px" x="1760px" y="280px" /><rect fill="rgb(103,135,73)" height="40px" width="40px" x="1800px" y="280px" /><rect fill="rgb(103,135,73)" height="40px" width="40px" x="1840px" y="280px" /><rect fill="rgb(103,135,73)" height="40px" width="40px" x="1880px" y="280px" /><rect fill="rgb(103,135,73)" height="40px" width="40px" x="1920px" y="280px" /><rect fill="rgb(103,135,73)" height="40px" width="40px" x="1960px" y="280px" /><rect fill="rgb(103,135,73)" height="40px" width="40px" x="2000px" y="280px" /><rect fill="rgb(103,135,73)" height="40px" width="40px" x="2040px" y="280px" /><rect fill="rgb(103,135,73)" height="40px" width="40px" x="2080px" y="280px" /><rect fill="rgb(103,135,73)" height="40px" width="40px" x="2120px" y="280px" /><rect fill="rgb(103,135,73)" height="40px" width="40px" x="2160px" y="280px" /><rect fill="rgb(103,135,73)" height="40px" width="40px" x="2200px" y="280px" /><rect fill="rgb(103,135,73)" height="40px" width="40px" x="2240px" y="280px" /><rect fill="rgb(103,135,73)" height="40px" width="40px" x="2280px" y="280px" /><rect fill="rgb(103,135,73)" height="40px" width="40px" x="2320px" y="280px" /><rect fill="rgb(103,135,73)" height="40px" width="40px" x="2360px" y="280px" /><rect fill="rgb(103,135,73)" height="40px" width="40px" x="2400px" y="280px" /><rect fill="rgb(103,135,73)" height="40px" width="40px" x="2440px" y="280px" /><rect fill="rgb(103,135,73)" height="40px" width="40px" x="2480px" y="280px" /><rect fill="rgb(103,135,73)" height="40px" width="40px" x="2520px" y="280px" /><rect fill="rgb(103,135,73)" height="40px" width="40px" x="2560px" y="280px" /><rect fill="rgb(103,135,73)" height="40px" width="40px" x="2600px" y="280px" /><rect fill="rgb(103,135,73)" height="40px" width="40px" x="2640px" y="280px" /><rect fill="rgb(103,135,73)" height="40px" width="40px" x="2680px" y="280px" /><rect fill="rgb(103,135,73)" height="40px" width="40px" x="2720px" y="280px" /><rect fill="rgb(103,135,73)" height="40px" width="40px" x="2760px" y="280px" /><rect fill="rgb(103,135,73)" height="40px" width="40px" x="2800px" y="280px" /><rect fill="rgb(103,135,73)" height="40px" width="40px" x="2840px" y="280px" /><rect fill="rgb(103,135,73)" height="40px" width="40px" x="2880px" y="280px" /><rect fill="rgb(103,135,73)" height="40px" width="40px" x="2920px" y="280px" /><rect fill="rgb(103,135,73)" height="40px" width="40px" x="2960px" y="280px" /><rect fill="rgb(103,135,73)" height="40px" width="40px" x="3000px" y="280px" /><rect fill="rgb(103,135,73)" height="40px" width="40px" x="3040px" y="280px" /><rect fill="rgb(103,135,73)" height="40px" width="40px" x="3080px" y="280px" /><rect fill="rgb(103,135,73)" height="40px" width="40px" x="3120px" y="280px" /><rect fill="rgb(103,135,73)" height="40px" width="40px" x="3160px" y="280px" /><rect fill="rgb(103,135,73)" height="40px" width="40px" x="3200px" y="280px" /><rect fill="rgb(103,135,73)" height="40px" width="40px" x="3240px" y="280px" /><rect fill="rgb(103,135,73)" height="40px" width="40px" x="3280px" y="280px" /><rect fill="rgb(103,135,73)" height="40px" width="40px" x="3320px" y="280px" /><rect fill="rgb(103,135,73)" height="40px" width="40px" x="3360px" y="280px" /><rect fill="rgb(103,135,73)" height="40px" width="40px" x="3400px" y="280px" /><rect fill="rgb(103,135,73)" height="40px" width="40px" x="3440px" y="280px" /><rect fill="rgb(103,135,73)" height="40px" width="40px" x="3480px" y="280px" /><rect fill="rgb(103,135,73)" height="40px" width="40px" x="3520px" y="280px" /><rect fill="rgb(103,135,73)" height="40px" width="40px" x="3560px" y="280px" /><rect fill="rgb(103,135,73)" height="40px" width="40px" x="3600px" y="280px" /><rect fill="rgb(103,135,73)" height="40px" width="40px" x="3640px" y="280px" /><rect fill="rgb(103,135,73)" height="40px" width="40px" x="3680px" y="280px" /><rect fill="rgb(103,135,73)" height="40px" width="40px" x="3720px" y="280px" /><rect fill="rgb(103,135,73)" height="40px" width="40px" x="3760px" y="280px" /><rect fill="rgb(103,135,73)" height="40px" width="40px" x="3800px" y="280px" /><rect fill="rgb(103,135,73)" height="40px" width="40px" x="3840px" y="280px" /><rect fill="rgb(103,135,73)" height="40px" width="40px" x="3880px" y="280px" /><rect fill="rgb(103,135,73)" height="40px" width="40px" x="3920px" y="280px" /><rect fill="rgb(103,135,73)" height="40px" width="40px" x="3960px" y="280px" /><rect fill="rgb(103,135,73)" height="40px" width="40px" x="4000px" y="280px" /><rect fill="rgb(103,135,73)" height="40px" width="40px" x="4040px" y="280px" /><rect fill="rgb(103,135,73)" height="40px" width="40px" x="4080px" y="280px" /><rect fill="rgb(103,135,73)" height="40px" width="40px" x="4120px" y="280px" /><rect fill="rgb(103,135,73)" height="40px" width="40px" x="4160px" y="280px" /><rect fill="rgb(103,135,73)" height="40px" width="40px" x="4200px" y="280px" /><rect fill="rgb(103,135,73)" height="40px" width="40px" x="4240px" y="280px" /><rect fill="rgb(103,135,73)" height="40px" width="40px" x="4280px" y="280px" /><rect fill="rgb(120,173,70)" height="40px" width="40px" x="4320px" y="280px" /><rect fill="rgb(120,173,70)" height="40px" width="40px" x="4360px" y="280px" /><rect fill="rgb(120,173,70)" height="40px" width="40px" x="4400px" y="280px" /><rect fill="rgb(103,135,73)" height="40px" width="40px" x="4440px" y="280px" /><rect fill="rgb(103,135,73)" height="40px" width="40px" x="4480px" y="280px" /><rect fill="rgb(120,173,70)" height="40px" width="40px" x="4520px" y="280px" /><rect fill="rgb(120,173,70)" height="40px" width="40px" x="4560px" y="280px" /><rect fill="rgb(120,173,70)" height="40px" width="40px" x="4600px" y="280px" /><rect fill="rgb(120,173,70)" height="40px" width="40px" x="4640px" y="280px" /><rect fill="rgb(120,173,70)" height="40px" width="40px" x="4680px" y="280px" /><rect fill="rgb(120,173,70)" height="40px" width="40px" x="4720px" y="280px" /><rect fill="rgb(120,173,70)" height="40px" width="40px" x="4760px" y="280px" /><rect fill="rgb(120,173,70)" height="40px" width="40px" x="4800px" y="280px" /><rect fill="rgb(120,173,70)" height="40px" width="40px" x="4840px" y="280px" /><rect fill="rgb(120,173,70)" height="40px" width="40px" x="4880px" y="280px" /><rect fill="rgb(103,135,73)" height="40px" width="40px" x="4920px" y="280px" /><rect fill="rgb(103,135,73)" height="40px" width="40px" x="4960px" y="280px" /><rect fill="rgb(103,135,73)" height="40px" width="40px" x="5000px" y="280px" /><rect fill="rgb(103,135,73)" height="40px" width="40px" x="5040px" y="280px" /><rect fill="rgb(103,135,73)" height="40px" width="40px" x="5080px" y="280px" /><rect fill="rgb(103,135,73)" height="40px" width="40px" x="5120px" y="280px" /><rect fill="rgb(103,135,73)" height="40px" width="40px" x="5160px" y="280px" /><rect fill="rgb(103,135,73)" height="40px" width="40px" x="5200px" y="280px" /><rect fill="rgb(103,135,73)" height="40px" width="40px" x="5240px" y="280px" /><rect fill="rgb(103,135,73)" height="40px" width="40px" x="5280px" y="280px" /><rect fill="rgb(103,135,73)" height="40px" width="40px" x="5320px" y="280px" /><rect fill="rgb(103,135,73)" height="40px" width="40px" x="5360px" y="280px" /><rect fill="rgb(103,135,73)" height="40px" width="40px" x="5400px" y="280px" /><rect fill="rgb(103,135,73)" height="40px" width="40px" x="5440px" y="280px" /><rect fill="rgb(103,135,73)" height="40px" width="40px" x="5480px" y="280px" /><rect fill="rgb(103,135,73)" height="40px" width="40px" x="5520px" y="280px" /><rect fill="rgb(103,135,73)" height="40px" width="40px" x="5560px" y="280px" /><rect fill="rgb(103,135,73)" height="40px" width="40px" x="5600px" y="280px" /><rect fill="rgb(103,135,73)" height="40px" width="40px" x="5640px" y="280px" /><rect fill="rgb(103,135,73)" height="40px" width="40px" x="5680px" y="280px" /><rect fill="rgb(103,135,73)" height="40px" width="40px" x="5720px" y="280px" /><rect fill="rgb(103,135,73)" height="40px" width="40px" x="5760px" y="280px" /><rect fill="rgb(103,135,73)" height="40px" width="40px" x="5800px" y="280px" /><rect fill="rgb(103,135,73)" height="40px" width="40px" x="5840px" y="280px" /><rect fill="rgb(103,135,73)" height="40px" width="40px" x="5880px" y="280px" /><rect fill="rgb(103,135,73)" height="40px" width="40px" x="5920px" y="280px" /><rect fill="rgb(103,135,73)" height="40px" width="40px" x="5960px" y="280px" /></svg>