<?xml version="1.0" encoding="UTF-8"?>
<svg baseProfile="full" version="1.1" viewBox="0 0 6000 320" xmlns="http://www.w3.org/2000/svg">
  <rect x="5e3px" width="40px" height="40px" fill="#cf987e"/>
  <rect x="5040px" width="40px" height="40px" fill="#cf987e"/>
  <rect x="5080px" width="40px" height="40px" fill="#cf987e"/>
  <rect x="80px" y="40px" width="40px" height="40px" fill="#ccc"/>
  <rect x="560px" y="40px" width="40px" height="40px" fill="#ccc"/>
  <rect x="680px" y="40px" width="40px" height="40px" fill="#ccc"/>
  <rect x="1e3px" y="40px" width="40px" height="40px" fill="#ccc"/>
  <rect x="1440px" y="40px" width="40px" height="40px" fill="#ccc"/>
  <rect x="1840px" y="40px" width="40px" height="40px" fill="#ccc"/>
  <rect x="1960px" y="40px" width="40px" height="40px" fill="#ccc"/>
  <rect x="2440px" y="40px" width="40px" height="40px" fill="#ccc"/>
  <rect x="2560px" y="40px" width="40px" height="40px" fill="#ccc"/>
  <rect x="2960px" y="40px" width="40px" height="40px" fill="#ccc"/>
  <rect x="3400px" y="40px" width="40px" height="40px" fill="#ccc"/>
  <rect x="3520px" y="40px" width="40px" height="40px" fill="#ccc"/>
  <rect x="3920px" y="40px" width="40px" height="40px" fill="#ccc"/>
  <rect x="4240px" y="40px" width="40px" height="40px" fill="#E6E6E6"/>
  <rect x="4440px" y="40px" width="40px" height="40px" fill="#b7856d"/>
  <rect x="4480px" y="40px" width="40px" height="40px" fill="#cf987e"/>
  <rect x="4520px" y="40px" width="40px" height="40px" fill="#cf987e"/>
  <rect x="4960px" y="40px" width="40px" height="40px" fill="#cf987e"/>
  <rect x="5e3px" y="40px" width="40px" height="40px" fill="#cf987e"/>
  <rect x="5040px" y="40px" width="40px" height="40px" fill="#cf987e"/>
  <rect x="5080px" y="40px" width="40px" height="40px" fill="#cf987e"/>
  <rect x="5120px" y="40px" width="40px" height="40px" fill="#cf987e"/>
  <rect x="5400px" y="40px" width="40px" height="40px" fill="#E6E6E6"/>
  <rect x="5800px" y="40px" width="40px" height="40px" fill="#ccc"/>
  <rect y="80px" width="40px" height="40px" fill="#ccc"/>
  <rect x="40px" y="80px" width="40px" height="40px" fill="#ccc"/>
  <rect x="200px" y="80px" width="40px" height="40px" fill="#ccc"/>
  <rect x="240px" y="80px" width="40px" height="40px" fill="#ccc"/>
  <rect x="400px" y="80px" width="40px" height="40px" fill="#ccc"/>
  <rect x="440px" y="80px" width="40px" height="40px" fill="#ccc"/>
  <rect x="600px" y="80px" width="40px" height="40px" fill="#ccc"/>
  <rect x="640px" y="80px" width="40px" height="40px" fill="#ccc"/>
  <rect x="680px" y="80px" width="40px" height="40px" fill="#ccc"/>
  <rect x="760px" y="80px" width="40px" height="40px" fill="#ccc"/>
  <rect x="920px" y="80px" width="40px" height="40px" fill="#ccc"/>
  <rect x="960px" y="80px" width="40px" height="40px" fill="#ccc"/>
  <rect x="1120px" y="80px" width="40px" height="40px" fill="#ccc"/>
  <rect x="1160px" y="80px" width="40px" height="40px" fill="#ccc"/>
  <rect x="1240px" y="80px" width="40px" height="40px" fill="#ccc"/>
  <rect x="1320px" y="80px" width="40px" height="40px" fill="#ccc"/>
  <rect x="1400px" y="80px" width="40px" height="40px" fill="#ccc"/>
  <rect x="1560px" y="80px" width="40px" height="40px" fill="#ccc"/>
  <rect x="1600px" y="80px" width="40px" height="40px" fill="#ccc"/>
  <rect x="1760px" y="80px" width="40px" height="40px" fill="#ccc"/>
  <rect x="1840px" y="80px" width="40px" height="40px" fill="#ccc"/>
  <rect x="1880px" y="80px" width="40px" height="40px" fill="#ccc"/>
  <rect x="1920px" y="80px" width="40px" height="40px" fill="#ccc"/>
  <rect x="2080px" y="80px" width="40px" height="40px" fill="#ccc"/>
  <rect x="2120px" y="80px" width="40px" height="40px" fill="#ccc"/>
  <rect x="2280px" y="80px" width="40px" height="40px" fill="#ccc"/>
  <rect x="2320px" y="80px" width="40px" height="40px" fill="#ccc"/>
  <rect x="2480px" y="80px" width="40px" height="40px" fill="#ccc"/>
  <rect x="2520px" y="80px" width="40px" height="40px" fill="#ccc"/>
  <rect x="2560px" y="80px" width="40px" height="40px" fill="#ccc"/>
  <rect x="2640px" y="80px" width="40px" height="40px" fill="#ccc"/>
  <rect x="2800px" y="80px" width="40px" height="40px" fill="#ccc"/>
  <rect x="2840px" y="80px" width="40px" height="40px" fill="#ccc"/>
  <rect x="3e3px" y="80px" width="40px" height="40px" fill="#ccc"/>
  <rect x="3080px" y="80px" width="40px" height="40px" fill="#ccc"/>
  <rect x="3160px" y="80px" width="40px" height="40px" fill="#ccc"/>
  <rect x="3240px" y="80px" width="40px" height="40px" fill="#ccc"/>
  <rect x="3280px" y="80px" width="40px" height="40px" fill="#ccc"/>
  <rect x="3440px" y="80px" width="40px" height="40px" fill="#ccc"/>
  <rect x="3480px" y="80px" width="40px" height="40px" fill="#ccc"/>
  <rect x="3520px" y="80px" width="40px" height="40px" fill="#ccc"/>
  <rect x="3600px" y="80px" width="40px" height="40px" fill="#ccc"/>
  <rect x="3760px" y="80px" width="40px" height="40px" fill="#ccc"/>
  <rect x="3800px" y="80px" width="40px" height="40px" fill="#ccc"/>
  <rect x="3960px" y="80px" width="40px" height="40px" fill="#ccc"/>
  <rect x="4040px" y="80px" width="40px" height="40px" fill="#ccc"/>
  <rect x="4120px" y="80px" width="40px" height="40px" fill="#E6E6E6"/>
  <rect x="4200px" y="80px" width="40px" height="40px" fill="#E6E6E6"/>
  <rect x="4400px" y="80px" width="40px" height="40px" fill="#b7856d"/>
  <rect x="4440px" y="80px" width="40px" height="40px" fill="#b7856d"/>
  <rect x="4480px" y="80px" width="40px" height="40px" fill="#b7856d"/>
  <rect x="4520px" y="80px" width="40px" height="40px" fill="#b7856d"/>
  <rect x="4560px" y="80px" width="40px" height="40px" fill="#b7856d"/>
  <rect x="4760px" y="80px" width="40px" height="40px" fill="#fc8aa1"/>
  <rect x="5040px" y="80px" width="40px" height="40px" fill="#9badb7"/>
  <rect x="5280px" y="80px" width="40px" height="40px" fill="#E6E6E6"/>
  <rect x="5360px" y="80px" width="40px" height="40px" fill="#E6E6E6"/>
  <rect x="5480px" y="80px" width="40px" height="40px" fill="#ccc"/>
  <rect x="5640px" y="80px" width="40px" height="40px" fill="#ccc"/>
  <rect x="5680px" y="80px" width="40px" height="40px" fill="#ccc"/>
  <rect x="5840px" y="80px" width="40px" height="40px" fill="#ccc"/>
  <rect x="5920px" y="80px" width="40px" height="40px" fill="#ccc"/>
  <rect x="40px" y="120px" width="40px" height="40px" fill="#ccc"/>
  <rect x="80px" y="120px" width="40px" height="40px" fill="#ccc"/>
  <rect x="160px" y="120px" width="40px" height="40px" fill="#ccc"/>
  <rect x="200px" y="120px" width="40px" height="40px" fill="#ccc"/>
  <rect x="320px" y="120px" width="40px" height="40px" fill="#ccc"/>
  <rect x="440px" y="120px" width="40px" height="40px" fill="#ccc"/>
  <rect x="480px" y="120px" width="40px" height="40px" fill="#ccc"/>
  <rect x="560px" y="120px" width="40px" height="40px" fill="#ccc"/>
  <rect x="600px" y="120px" width="40px" height="40px" fill="#ccc"/>
  <rect x="680px" y="120px" width="40px" height="40px" fill="#ccc"/>
  <rect x="760px" y="120px" width="40px" height="40px" fill="#ccc"/>
  <rect x="840px" y="120px" width="40px" height="40px" fill="#ccc"/>
  <rect x="960px" y="120px" width="40px" height="40px" fill="#ccc"/>
  <rect x="1e3px" y="120px" width="40px" height="40px" fill="#ccc"/>
  <rect x="1080px" y="120px" width="40px" height="40px" fill="#ccc"/>
  <rect x="1120px" y="120px" width="40px" height="40px" fill="#ccc"/>
  <rect x="1240px" y="120px" width="40px" height="40px" fill="#ccc"/>
  <rect x="1320px" y="120px" width="40px" height="40px" fill="#ccc"/>
  <rect x="1400px" y="120px" width="40px" height="40px" fill="#ccc"/>
  <rect x="1440px" y="120px" width="40px" height="40px" fill="#ccc"/>
  <rect x="1520px" y="120px" width="40px" height="40px" fill="#ccc"/>
  <rect x="1560px" y="120px" width="40px" height="40px" fill="#ccc"/>
  <rect x="1680px" y="120px" width="40px" height="40px" fill="#ccc"/>
  <rect x="1760px" y="120px" width="40px" height="40px" fill="#ccc"/>
  <rect x="1840px" y="120px" width="40px" height="40px" fill="#ccc"/>
  <rect x="1920px" y="120px" width="40px" height="40px" fill="#ccc"/>
  <rect x="1960px" y="120px" width="40px" height="40px" fill="#ccc"/>
  <rect x="2040px" y="120px" width="40px" height="40px" fill="#ccc"/>
  <rect x="2080px" y="120px" width="40px" height="40px" fill="#ccc"/>
  <rect x="2200px" y="120px" width="40px" height="40px" fill="#ccc"/>
  <rect x="2320px" y="120px" width="40px" height="40px" fill="#ccc"/>
  <rect x="2360px" y="120px" width="40px" height="40px" fill="#ccc"/>
  <rect x="2440px" y="120px" width="40px" height="40px" fill="#ccc"/>
  <rect x="2480px" y="120px" width="40px" height="40px" fill="#ccc"/>
  <rect x="2560px" y="120px" width="40px" height="40px" fill="#ccc"/>
  <rect x="2640px" y="120px" width="40px" height="40px" fill="#ccc"/>
  <rect x="2720px" y="120px" width="40px" height="40px" fill="#ccc"/>
  <rect x="2840px" y="120px" width="40px" height="40px" fill="#ccc"/>
  <rect x="2880px" y="120px" width="40px" height="40px" fill="#ccc"/>
  <rect x="2960px" y="120px" width="40px" height="40px" fill="#ccc"/>
  <rect x="3e3px" y="120px" width="40px" height="40px" fill="#ccc"/>
  <rect x="3080px" y="120px" width="40px" height="40px" fill="#ccc"/>
  <rect x="3160px" y="120px" width="40px" height="40px" fill="#ccc"/>
  <rect x="3280px" y="120px" width="40px" height="40px" fill="#ccc"/>
  <rect x="3320px" y="120px" width="40px" height="40px" fill="#ccc"/>
  <rect x="3400px" y="120px" width="40px" height="40px" fill="#ccc"/>
  <rect x="3440px" y="120px" width="40px" height="40px" fill="#ccc"/>
  <rect x="3520px" y="120px" width="40px" height="40px" fill="#ccc"/>
  <rect x="3600px" y="120px" width="40px" height="40px" fill="#ccc"/>
  <rect x="3680px" y="120px" width="40px" height="40px" fill="#ccc"/>
  <rect x="3800px" y="120px" width="40px" height="40px" fill="#ccc"/>
  <rect x="3840px" y="120px" width="40px" height="40px" fill="#ccc"/>
  <rect x="3920px" y="120px" width="40px" height="40px" fill="#ccc"/>
  <rect x="3960px" y="120px" width="40px" height="40px" fill="#ccc"/>
  <rect x="4040px" y="120px" width="40px" height="40px" fill="#ccc"/>
  <rect x="4120px" y="120px" width="40px" height="40px" fill="#ccc"/>
  <rect x="4200px" y="120px" width="40px" height="40px" fill="#ccc"/>
  <rect x="4240px" y="120px" width="40px" height="40px" fill="#E6E6E6"/>
  <rect x="4480px" y="120px" width="40px" height="40px" fill="#90999e"/>
  <rect x="4520px" y="120px" width="40px" height="40px" fill="#fc8aa1"/>
  <rect x="4720px" y="120px" width="40px" height="40px" fill="#fc8aa1"/>
  <rect x="4760px" y="120px" width="40px" height="40px" fill="#fc8aa1"/>
  <rect x="4800px" y="120px" width="40px" height="40px" fill="#ff6584"/>
  <rect x="4960px" y="120px" width="40px" height="40px" fill="#ff6584"/>
  <rect x="5040px" y="120px" width="40px" height="40px" fill="#9badb7"/>
  <rect x="5280px" y="120px" width="40px" height="40px" fill="#ccc"/>
  <rect x="5400px" y="120px" width="40px" height="40px" fill="#ccc"/>
  <rect x="5480px" y="120px" width="40px" height="40px" fill="#ccc"/>
  <rect x="5560px" y="120px" width="40px" height="40px" fill="#ccc"/>
  <rect x="5680px" y="120px" width="40px" height="40px" fill="#ccc"/>
  <rect x="5720px" y="120px" width="40px" height="40px" fill="#ccc"/>
  <rect x="5800px" y="120px" width="40px" height="40px" fill="#ccc"/>
  <rect x="5840px" y="120px" width="40px" height="40px" fill="#ccc"/>
  <rect x="5920px" y="120px" width="40px" height="40px" fill="#ccc"/>
  <rect x="80px" y="160px" width="40px" height="40px" fill="#ccc"/>
  <rect x="120px" y="160px" width="40px" height="40px" fill="#ccc"/>
  <rect x="160px" y="160px" width="40px" height="40px" fill="#ccc"/>
  <rect x="200px" y="160px" width="40px" height="40px" fill="#ccc"/>
  <rect x="280px" y="160px" width="40px" height="40px" fill="#ccc"/>
  <rect x="360px" y="160px" width="40px" height="40px" fill="#ccc"/>
  <rect x="440px" y="160px" width="40px" height="40px" fill="#ccc"/>
  <rect x="480px" y="160px" width="40px" height="40px" fill="#ccc"/>
  <rect x="520px" y="160px" width="40px" height="40px" fill="#ccc"/>
  <rect x="560px" y="160px" width="40px" height="40px" fill="#ccc"/>
  <rect x="720px" y="160px" width="40px" height="40px" fill="#ccc"/>
  <rect x="800px" y="160px" width="40px" height="40px" fill="#ccc"/>
  <rect x="960px" y="160px" width="40px" height="40px" fill="#ccc"/>
  <rect x="1e3px" y="160px" width="40px" height="40px" fill="#ccc"/>
  <rect x="1040px" y="160px" width="40px" height="40px" fill="#ccc"/>
  <rect x="1080px" y="160px" width="40px" height="40px" fill="#ccc"/>
  <rect x="1120px" y="160px" width="40px" height="40px" fill="#ccc"/>
  <rect x="1280px" y="160px" width="40px" height="40px" fill="#ccc"/>
  <rect x="1440px" y="160px" width="40px" height="40px" fill="#ccc"/>
  <rect x="1480px" y="160px" width="40px" height="40px" fill="#ccc"/>
  <rect x="1520px" y="160px" width="40px" height="40px" fill="#ccc"/>
  <rect x="1560px" y="160px" width="40px" height="40px" fill="#ccc"/>
  <rect x="1720px" y="160px" width="40px" height="40px" fill="#ccc"/>
  <rect x="1800px" y="160px" width="40px" height="40px" fill="#ccc"/>
  <rect x="1960px" y="160px" width="40px" height="40px" fill="#ccc"/>
  <rect x="2e3px" y="160px" width="40px" height="40px" fill="#ccc"/>
  <rect x="2040px" y="160px" width="40px" height="40px" fill="#ccc"/>
  <rect x="2080px" y="160px" width="40px" height="40px" fill="#ccc"/>
  <rect x="2160px" y="160px" width="40px" height="40px" fill="#ccc"/>
  <rect x="2240px" y="160px" width="40px" height="40px" fill="#ccc"/>
  <rect x="2320px" y="160px" width="40px" height="40px" fill="#ccc"/>
  <rect x="2360px" y="160px" width="40px" height="40px" fill="#ccc"/>
  <rect x="2400px" y="160px" width="40px" height="40px" fill="#ccc"/>
  <rect x="2440px" y="160px" width="40px" height="40px" fill="#ccc"/>
  <rect x="2600px" y="160px" width="40px" height="40px" fill="#ccc"/>
  <rect x="2680px" y="160px" width="40px" height="40px" fill="#ccc"/>
  <rect x="2840px" y="160px" width="40px" height="40px" fill="#ccc"/>
  <rect x="2880px" y="160px" width="40px" height="40px" fill="#ccc"/>
  <rect x="2920px" y="160px" width="40px" height="40px" fill="#ccc"/>
  <rect x="2960px" y="160px" width="40px" height="40px" fill="#ccc"/>
  <rect x="3120px" y="160px" width="40px" height="40px" fill="#ccc"/>
  <rect x="3280px" y="160px" width="40px" height="40px" fill="#ccc"/>
  <rect x="3320px" y="160px" width="40px" height="40px" fill="#ccc"/>
  <rect x="3360px" y="160px" width="40px" height="40px" fill="#ccc"/>
  <rect x="3400px" y="160px" width="40px" height="40px" fill="#ccc"/>
  <rect x="3560px" y="160px" width="40px" height="40px" fill="#ccc"/>
  <rect x="3640px" y="160px" width="40px" height="40px" fill="#ccc"/>
  <rect x="3800px" y="160px" width="40px" height="40px" fill="#ccc"/>
  <rect x="3840px" y="160px" width="40px" height="40px" fill="#ccc"/>
  <rect x="3880px" y="160px" width="40px" height="40px" fill="#ccc"/>
  <rect x="3920px" y="160px" width="40px" height="40px" fill="#ccc"/>
  <rect x="4080px" y="160px" width="40px" height="40px" fill="#ccc"/>
  <rect x="4240px" y="160px" width="40px" height="40px" fill="#ccc"/>
  <rect x="4480px" y="160px" width="40px" height="40px" fill="#ff6584"/>
  <rect x="4520px" y="160px" width="40px" height="40px" fill="#fc8aa1"/>
  <rect x="4560px" y="160px" width="40px" height="40px" fill="#fc8aa1"/>
  <rect x="4760px" y="160px" width="40px" height="40px" fill="#f0eae8"/>
  <rect x="4920px" y="160px" width="40px" height="40px" fill="#ff6584"/>
  <rect x="4960px" y="160px" width="40px" height="40px" fill="#ff6584"/>
  <rect x="5e3px" y="160px" width="40px" height="40px" fill="#ff6584"/>
  <rect x="5080px" y="160px" width="40px" height="40px" fill="#9badb7"/>
  <rect x="5280px" y="160px" width="40px" height="40px" fill="#ccc"/>
  <rect x="5320px" y="160px" width="40px" height="40px" fill="#ccc"/>
  <rect x="5440px" y="160px" width="40px" height="40px" fill="#ccc"/>
  <rect x="5520px" y="160px" width="40px" height="40px" fill="#ccc"/>
  <rect x="5600px" y="160px" width="40px" height="40px" fill="#ccc"/>
  <rect x="5680px" y="160px" width="40px" height="40px" fill="#ccc"/>
  <rect x="5720px" y="160px" width="40px" height="40px" fill="#ccc"/>
  <rect x="5760px" y="160px" width="40px" height="40px" fill="#ccc"/>
  <rect x="5800px" y="160px" width="40px" height="40px" fill="#ccc"/>
  <rect x="5960px" y="160px" width="40px" height="40px" fill="#ccc"/>
  <rect y="200px" width="40px" height="40px" fill="#ccc"/>
  <rect x="80px" y="200px" width="40px" height="40px" fill="#ccc"/>
  <rect x="160px" y="200px" width="40px" height="40px" fill="#ccc"/>
  <rect x="200px" y="200px" width="40px" height="40px" fill="#ccc"/>
  <rect x="240px" y="200px" width="40px" height="40px" fill="#ccc"/>
  <rect x="280px" y="200px" width="40px" height="40px" fill="#ccc"/>
  <rect x="360px" y="200px" width="40px" height="40px" fill="#ccc"/>
  <rect x="400px" y="200px" width="40px" height="40px" fill="#ccc"/>
  <rect x="440px" y="200px" width="40px" height="40px" fill="#ccc"/>
  <rect x="480px" y="200px" width="40px" height="40px" fill="#ccc"/>
  <rect x="560px" y="200px" width="40px" height="40px" fill="#ccc"/>
  <rect x="640px" y="200px" width="40px" height="40px" fill="#ccc"/>
  <rect x="720px" y="200px" width="40px" height="40px" fill="#ccc"/>
  <rect x="800px" y="200px" width="40px" height="40px" fill="#ccc"/>
  <rect x="920px" y="200px" width="40px" height="40px" fill="#ccc"/>
  <rect x="960px" y="200px" width="40px" height="40px" fill="#ccc"/>
  <rect x="1e3px" y="200px" width="40px" height="40px" fill="#ccc"/>
  <rect x="1080px" y="200px" width="40px" height="40px" fill="#ccc"/>
  <rect x="1120px" y="200px" width="40px" height="40px" fill="#ccc"/>
  <rect x="1160px" y="200px" width="40px" height="40px" fill="#ccc"/>
  <rect x="1200px" y="200px" width="40px" height="40px" fill="#ccc"/>
  <rect x="1280px" y="200px" width="40px" height="40px" fill="#ccc"/>
  <rect x="1360px" y="200px" width="40px" height="40px" fill="#ccc"/>
  <rect x="1440px" y="200px" width="40px" height="40px" fill="#ccc"/>
  <rect x="1520px" y="200px" width="40px" height="40px" fill="#ccc"/>
  <rect x="1560px" y="200px" width="40px" height="40px" fill="#ccc"/>
  <rect x="1600px" y="200px" width="40px" height="40px" fill="#ccc"/>
  <rect x="1720px" y="200px" width="40px" height="40px" fill="#ccc"/>
  <rect x="1800px" y="200px" width="40px" height="40px" fill="#ccc"/>
  <rect x="1880px" y="200px" width="40px" height="40px" fill="#ccc"/>
  <rect x="1960px" y="200px" width="40px" height="40px" fill="#ccc"/>
  <rect x="2040px" y="200px" width="40px" height="40px" fill="#ccc"/>
  <rect x="2080px" y="200px" width="40px" height="40px" fill="#ccc"/>
  <rect x="2120px" y="200px" width="40px" height="40px" fill="#ccc"/>
  <rect x="2160px" y="200px" width="40px" height="40px" fill="#ccc"/>
  <rect x="2240px" y="200px" width="40px" height="40px" fill="#ccc"/>
  <rect x="2280px" y="200px" width="40px" height="40px" fill="#ccc"/>
  <rect x="2320px" y="200px" width="40px" height="40px" fill="#ccc"/>
  <rect x="2360px" y="200px" width="40px" height="40px" fill="#ccc"/>
  <rect x="2440px" y="200px" width="40px" height="40px" fill="#ccc"/>
  <rect x="2520px" y="200px" width="40px" height="40px" fill="#ccc"/>
  <rect x="2600px" y="200px" width="40px" height="40px" fill="#ccc"/>
  <rect x="2680px" y="200px" width="40px" height="40px" fill="#ccc"/>
  <rect x="2800px" y="200px" width="40px" height="40px" fill="#ccc"/>
  <rect x="2840px" y="200px" width="40px" height="40px" fill="#ccc"/>
  <rect x="2880px" y="200px" width="40px" height="40px" fill="#ccc"/>
  <rect x="2960px" y="200px" width="40px" height="40px" fill="#ccc"/>
  <rect x="3040px" y="200px" width="40px" height="40px" fill="#ccc"/>
  <rect x="3120px" y="200px" width="40px" height="40px" fill="#ccc"/>
  <rect x="3200px" y="200px" width="40px" height="40px" fill="#ccc"/>
  <rect x="3240px" y="200px" width="40px" height="40px" fill="#ccc"/>
  <rect x="3280px" y="200px" width="40px" height="40px" fill="#ccc"/>
  <rect x="3320px" y="200px" width="40px" height="40px" fill="#ccc"/>
  <rect x="3400px" y="200px" width="40px" height="40px" fill="#ccc"/>
  <rect x="3480px" y="200px" width="40px" height="40px" fill="#ccc"/>
  <rect x="3560px" y="200px" width="40px" height="40px" fill="#ccc"/>
  <rect x="3640px" y="200px" width="40px" height="40px" fill="#ccc"/>
  <rect x="3760px" y="200px" width="40px" height="40px" fill="#ccc"/>
  <rect x="3800px" y="200px" width="40px" height="40px" fill="#ccc"/>
  <rect x="3840px" y="200px" width="40px" height="40px" fill="#ccc"/>
  <rect x="3920px" y="200px" width="40px" height="40px" fill="#ccc"/>
  <rect x="4e3px" y="200px" width="40px" height="40px" fill="#ccc"/>
  <rect x="4080px" y="200px" width="40px" height="40px" fill="#ccc"/>
  <rect x="4160px" y="200px" width="40px" height="40px" fill="#ccc"/>
  <rect x="4240px" y="200px" width="40px" height="40px" fill="#ccc"/>
  <rect x="4480px" y="200px" width="40px" height="40px" fill="#90999e"/>
  <rect x="4520px" y="200px" width="40px" height="40px" fill="#f0eae8"/>
  <rect x="4760px" y="200px" width="40px" height="40px" fill="#f0eae8"/>
  <rect x="4960px" y="200px" width="40px" height="40px" fill="#cbc3c0"/>
  <rect x="5080px" y="200px" width="40px" height="40px" fill="#9badb7"/>
  <rect x="5320px" y="200px" width="40px" height="40px" fill="#ccc"/>
  <rect x="5440px" y="200px" width="40px" height="40px" fill="#ccc"/>
  <rect x="5520px" y="200px" width="40px" height="40px" fill="#ccc"/>
  <rect x="5640px" y="200px" width="40px" height="40px" fill="#ccc"/>
  <rect x="5680px" y="200px" width="40px" height="40px" fill="#ccc"/>
  <rect x="5720px" y="200px" width="40px" height="40px" fill="#ccc"/>
  <rect x="5800px" y="200px" width="40px" height="40px" fill="#ccc"/>
  <rect x="5880px" y="200px" width="40px" height="40px" fill="#ccc"/>
  <rect x="5960px" y="200px" width="40px" height="40px" fill="#ccc"/>
  <rect y="240px" width="40px" height="40px" fill="#ccc"/>
  <rect x="40px" y="240px" width="40px" height="40px" fill="#ccc"/>
  <rect x="80px" y="240px" width="40px" height="40px" fill="#ccc"/>
  <rect x="120px" y="240px" width="40px" height="40px" fill="#ccc"/>
  <rect x="160px" y="240px" width="40px" height="40px" fill="#ccc"/>
  <rect x="200px" y="240px" width="40px" height="40px" fill="#ccc"/>
  <rect x="240px" y="240px" width="40px" height="40px" fill="#ccc"/>
  <rect x="280px" y="240px" width="40px" height="40px" fill="#ccc"/>
  <rect x="320px" y="240px" width="40px" height="40px" fill="#ccc"/>
  <rect x="360px" y="240px" width="40px" height="40px" fill="#ccc"/>
  <rect x="400px" y="240px" width="40px" height="40px" fill="#ccc"/>
  <rect x="440px" y="240px" width="40px" height="40px" fill="#ccc"/>
  <rect x="480px" y="240px" width="40px" height="40px" fill="#ccc"/>
  <rect x="520px" y="240px" width="40px" height="40px" fill="#ccc"/>
  <rect x="560px" y="240px" width="40px" height="40px" fill="#ccc"/>
  <rect x="600px" y="240px" width="40px" height="40px" fill="#ccc"/>
  <rect x="640px" y="240px" width="40px" height="40px" fill="#ccc"/>
  <rect x="680px" y="240px" width="40px" height="40px" fill="#ccc"/>
  <rect x="720px" y="240px" width="40px" height="40px" fill="#ccc"/>
  <rect x="760px" y="240px" width="40px" height="40px" fill="#ccc"/>
  <rect x="800px" y="240px" width="40px" height="40px" fill="#ccc"/>
  <rect x="840px" y="240px" width="40px" height="40px" fill="#ccc"/>
  <rect x="880px" y="240px" width="40px" height="40px" fill="#ccc"/>
  <rect x="920px" y="240px" width="40px" height="40px" fill="#ccc"/>
  <rect x="960px" y="240px" width="40px" height="40px" fill="#ccc"/>
  <rect x="1e3px" y="240px" width="40px" height="40px" fill="#ccc"/>
  <rect x="1040px" y="240px" width="40px" height="40px" fill="#ccc"/>
  <rect x="1080px" y="240px" width="40px" height="40px" fill="#ccc"/>
  <rect x="1120px" y="240px" width="40px" height="40px" fill="#ccc"/>
  <rect x="1160px" y="240px" width="40px" height="40px" fill="#ccc"/>
  <rect x="1200px" y="240px" width="40px" height="40px" fill="#ccc"/>
  <rect x="1240px" y="240px" width="40px" height="40px" fill="#ccc"/>
  <rect x="1280px" y="240px" width="40px" height="40px" fill="#ccc"/>
  <rect x="1320px" y="240px" width="40px" height="40px" fill="#ccc"/>
  <rect x="1360px" y="240px" width="40px" height="40px" fill="#ccc"/>
  <rect x="1400px" y="240px" width="40px" height="40px" fill="#ccc"/>
  <rect x="1440px" y="240px" width="40px" height="40px" fill="#ccc"/>
  <rect x="1480px" y="240px" width="40px" height="40px" fill="#ccc"/>
  <rect x="1520px" y="240px" width="40px" height="40px" fill="#ccc"/>
  <rect x="1560px" y="240px" width="40px" height="40px" fill="#ccc"/>
  <rect x="1600px" y="240px" width="40px" height="40px" fill="#ccc"/>
  <rect x="1640px" y="240px" width="40px" height="40px" fill="#ccc"/>
  <rect x="1680px" y="240px" width="40px" height="40px" fill="#ccc"/>
  <rect x="1720px" y="240px" width="40px" height="40px" fill="#ccc"/>
  <rect x="1760px" y="240px" width="40px" height="40px" fill="#ccc"/>
  <rect x="1800px" y="240px" width="40px" height="40px" fill="#ccc"/>
  <rect x="1840px" y="240px" width="40px" height="40px" fill="#ccc"/>
  <rect x="1880px" y="240px" width="40px" height="40px" fill="#ccc"/>
  <rect x="1920px" y="240px" width="40px" height="40px" fill="#ccc"/>
  <rect x="1960px" y="240px" width="40px" height="40px" fill="#ccc"/>
  <rect x="2e3px" y="240px" width="40px" height="40px" fill="#ccc"/>
  <rect x="2040px" y="240px" width="40px" height="40px" fill="#ccc"/>
  <rect x="2080px" y="240px" width="40px" height="40px" fill="#ccc"/>
  <rect x="2120px" y="240px" width="40px" height="40px" fill="#ccc"/>
  <rect x="2160px" y="240px" width="40px" height="40px" fill="#ccc"/>
  <rect x="2200px" y="240px" width="40px" height="40px" fill="#ccc"/>
  <rect x="2240px" y="240px" width="40px" height="40px" fill="#ccc"/>
  <rect x="2280px" y="240px" width="40px" height="40px" fill="#ccc"/>
  <rect x="2320px" y="240px" width="40px" height="40px" fill="#ccc"/>
  <rect x="2360px" y="240px" width="40px" height="40px" fill="#ccc"/>
  <rect x="2400px" y="240px" width="40px" height="40px" fill="#ccc"/>
  <rect x="2440px" y="240px" width="40px" height="40px" fill="#ccc"/>
  <rect x="2480px" y="240px" width="40px" height="40px" fill="#ccc"/>
  <rect x="2520px" y="240px" width="40px" height="40px" fill="#ccc"/>
  <rect x="2560px" y="240px" width="40px" height="40px" fill="#ccc"/>
  <rect x="2600px" y="240px" width="40px" height="40px" fill="#ccc"/>
  <rect x="2640px" y="240px" width="40px" height="40px" fill="#ccc"/>
  <rect x="2680px" y="240px" width="40px" height="40px" fill="#ccc"/>
  <rect x="2720px" y="240px" width="40px" height="40px" fill="#ccc"/>
  <rect x="2760px" y="240px" width="40px" height="40px" fill="#ccc"/>
  <rect x="2800px" y="240px" width="40px" height="40px" fill="#ccc"/>
  <rect x="2840px" y="240px" width="40px" height="40px" fill="#ccc"/>
  <rect x="2880px" y="240px" width="40px" height="40px" fill="#ccc"/>
  <rect x="2920px" y="240px" width="40px" height="40px" fill="#ccc"/>
  <rect x="2960px" y="240px" width="40px" height="40px" fill="#ccc"/>
  <rect x="3e3px" y="240px" width="40px" height="40px" fill="#ccc"/>
  <rect x="3040px" y="240px" width="40px" height="40px" fill="#ccc"/>
  <rect x="3080px" y="240px" width="40px" height="40px" fill="#ccc"/>
  <rect x="3120px" y="240px" width="40px" height="40px" fill="#ccc"/>
  <rect x="3160px" y="240px" width="40px" height="40px" fill="#ccc"/>
  <rect x="3200px" y="240px" width="40px" height="40px" fill="#ccc"/>
  <rect x="3240px" y="240px" width="40px" height="40px" fill="#ccc"/>
  <rect x="3280px" y="240px" width="40px" height="40px" fill="#ccc"/>
  <rect x="3320px" y="240px" width="40px" height="40px" fill="#ccc"/>
  <rect x="3360px" y="240px" width="40px" height="40px" fill="#ccc"/>
  <rect x="3400px" y="240px" width="40px" height="40px" fill="#ccc"/>
  <rect x="3440px" y="240px" width="40px" height="40px" fill="#ccc"/>
  <rect x="3480px" y="240px" width="40px" height="40px" fill="#ccc"/>
  <rect x="3520px" y="240px" width="40px" height="40px" fill="#ccc"/>
  <rect x="3560px" y="240px" width="40px" height="40px" fill="#ccc"/>
  <rect x="3600px" y="240px" width="40px" height="40px" fill="#ccc"/>
  <rect x="3640px" y="240px" width="40px" height="40px" fill="#ccc"/>
  <rect x="3680px" y="240px" width="40px" height="40px" fill="#ccc"/>
  <rect x="3720px" y="240px" width="40px" height="40px" fill="#ccc"/>
  <rect x="3760px" y="240px" width="40px" height="40px" fill="#ccc"/>
  <rect x="3800px" y="240px" width="40px" height="40px" fill="#ccc"/>
  <rect x="3840px" y="240px" width="40px" height="40px" fill="#ccc"/>
  <rect x="3880px" y="240px" width="40px" height="40px" fill="#ccc"/>
  <rect x="3920px" y="240px" width="40px" height="40px" fill="#ccc"/>
  <rect x="3960px" y="240px" width="40px" height="40px" fill="#ccc"/>
  <rect x="4e3px" y="240px" width="40px" height="40px" fill="#ccc"/>
  <rect x="4040px" y="240px" width="40px" height="40px" fill="#ccc"/>
  <rect x="4080px" y="240px" width="40px" height="40px" fill="#ccc"/>
  <rect x="4120px" y="240px" width="40px" height="40px" fill="#ccc"/>
  <rect x="4160px" y="240px" width="40px" height="40px" fill="#ccc"/>
  <rect x="4200px" y="240px" width="40px" height="40px" fill="#ccc"/>
  <rect x="4240px" y="240px" width="40px" height="40px" fill="#ccc"/>
  <rect x="4280px" y="240px" width="40px" height="40px" fill="#ccc"/>
  <rect x="4320px" y="240px" width="40px" height="40px" fill="#ccc"/>
  <rect x="4360px" y="240px" width="40px" height="40px" fill="#E6E6E6"/>
  <rect x="4400px" y="240px" width="40px" height="40px" fill="#E6E6E6"/>
  <rect x="4440px" y="240px" width="40px" height="40px" fill="#E6E6E6"/>
  <rect x="4480px" y="240px" width="40px" height="40px" fill="#E6E6E6"/>
  <rect x="4520px" y="240px" width="40px" height="40px" fill="#E6E6E6"/>
  <rect x="4560px" y="240px" width="40px" height="40px" fill="#E6E6E6"/>
  <rect x="4600px" y="240px" width="40px" height="40px" fill="#E6E6E6"/>
  <rect x="4640px" y="240px" width="40px" height="40px" fill="#E6E6E6"/>
  <rect x="4680px" y="240px" width="40px" height="40px" fill="#E6E6E6"/>
  <rect x="4720px" y="240px" width="40px" height="40px" fill="#E6E6E6"/>
  <rect x="4760px" y="240px" width="40px" height="40px" fill="#E6E6E6"/>
  <rect x="4800px" y="240px" width="40px" height="40px" fill="#E6E6E6"/>
  <rect x="4840px" y="240px" width="40px" height="40px" fill="#E6E6E6"/>
  <rect x="4880px" y="240px" width="40px" height="40px" fill="#E6E6E6"/>
  <rect x="4920px" y="240px" width="40px" height="40px" fill="#E6E6E6"/>
  <rect x="4960px" y="240px" width="40px" height="40px" fill="#E6E6E6"/>
  <rect x="5e3px" y="240px" width="40px" height="40px" fill="#E6E6E6"/>
  <rect x="5040px" y="240px" width="40px" height="40px" fill="#E6E6E6"/>
  <rect x="5080px" y="240px" width="40px" height="40px" fill="#E6E6E6"/>
  <rect x="5120px" y="240px" width="40px" height="40px" fill="#E6E6E6"/>
  <rect x="5160px" y="240px" width="40px" height="40px" fill="#ccc"/>
  <rect x="5200px" y="240px" width="40px" height="40px" fill="#ccc"/>
  <rect x="5240px" y="240px" width="40px" height="40px" fill="#ccc"/>
  <rect x="5280px" y="240px" width="40px" height="40px" fill="#ccc"/>
  <rect x="5320px" y="240px" width="40px" height="40px" fill="#ccc"/>
  <rect x="5360px" y="240px" width="40px" height="40px" fill="#ccc"/>
  <rect x="5400px" y="240px" width="40px" height="40px" fill="#ccc"/>
  <rect x="5440px" y="240px" width="40px" height="40px" fill="#ccc"/>
  <rect x="5480px" y="240px" width="40px" height="40px" fill="#ccc"/>
  <rect x="5520px" y="240px" width="40px" height="40px" fill="#ccc"/>
  <rect x="5560px" y="240px" width="40px" height="40px" fill="#ccc"/>
  <rect x="5600px" y="240px" width="40px" height="40px" fill="#ccc"/>
  <rect x="5640px" y="240px" width="40px" height="40px" fill="#ccc"/>
  <rect x="5680px" y="240px" width="40px" height="40px" fill="#ccc"/>
  <rect x="5720px" y="240px" width="40px" height="40px" fill="#ccc"/>
  <rect x="5760px" y="240px" width="40px" height="40px" fill="#ccc"/>
  <rect x="5800px" y="240px" width="40px" height="40px" fill="#ccc"/>
  <rect x="5840px" y="240px" width="40px" height="40px" fill="#ccc"/>
  <rect x="5880px" y="240px" width="40px" height="40px" fill="#ccc"/>
  <rect x="5920px" y="240px" width="40px" height="40px" fill="#ccc"/>
  <rect x="5960px" y="240px" width="40px" height="40px" fill="#ccc"/>
  <rect y="280px" width="40px" height="40px" fill="#ccc"/>
  <rect x="40px" y="280px" width="40px" height="40px" fill="#ccc"/>
  <rect x="80px" y="280px" width="40px" height="40px" fill="#ccc"/>
  <rect x="120px" y="280px" width="40px" height="40px" fill="#ccc"/>
  <rect x="160px" y="280px" width="40px" height="40px" fill="#ccc"/>
  <rect x="200px" y="280px" width="40px" height="40px" fill="#ccc"/>
  <rect x="240px" y="280px" width="40px" height="40px" fill="#ccc"/>
  <rect x="280px" y="280px" width="40px" height="40px" fill="#ccc"/>
  <rect x="320px" y="280px" width="40px" height="40px" fill="#ccc"/>
  <rect x="360px" y="280px" width="40px" height="40px" fill="#ccc"/>
  <rect x="400px" y="280px" width="40px" height="40px" fill="#ccc"/>
  <rect x="440px" y="280px" width="40px" height="40px" fill="#ccc"/>
  <rect x="480px" y="280px" width="40px" height="40px" fill="#ccc"/>
  <rect x="520px" y="280px" width="40px" height="40px" fill="#ccc"/>
  <rect x="560px" y="280px" width="40px" height="40px" fill="#ccc"/>
  <rect x="600px" y="280px" width="40px" height="40px" fill="#ccc"/>
  <rect x="640px" y="280px" width="40px" height="40px" fill="#ccc"/>
  <rect x="680px" y="280px" width="40px" height="40px" fill="#ccc"/>
  <rect x="720px" y="280px" width="40px" height="40px" fill="#ccc"/>
  <rect x="760px" y="280px" width="40px" height="40px" fill="#ccc"/>
  <rect x="800px" y="280px" width="40px" height="40px" fill="#ccc"/>
  <rect x="840px" y="280px" width="40px" height="40px" fill="#ccc"/>
  <rect x="880px" y="280px" width="40px" height="40px" fill="#ccc"/>
  <rect x="920px" y="280px" width="40px" height="40px" fill="#ccc"/>
  <rect x="960px" y="280px" width="40px" height="40px" fill="#ccc"/>
  <rect x="1e3px" y="280px" width="40px" height="40px" fill="#ccc"/>
  <rect x="1040px" y="280px" width="40px" height="40px" fill="#ccc"/>
  <rect x="1080px" y="280px" width="40px" height="40px" fill="#ccc"/>
  <rect x="1120px" y="280px" width="40px" height="40px" fill="#ccc"/>
  <rect x="1160px" y="280px" width="40px" height="40px" fill="#ccc"/>
  <rect x="1200px" y="280px" width="40px" height="40px" fill="#ccc"/>
  <rect x="1240px" y="280px" width="40px" height="40px" fill="#ccc"/>
  <rect x="1280px" y="280px" width="40px" height="40px" fill="#ccc"/>
  <rect x="1320px" y="280px" width="40px" height="40px" fill="#ccc"/>
  <rect x="1360px" y="280px" width="40px" height="40px" fill="#ccc"/>
  <rect x="1400px" y="280px" width="40px" height="40px" fill="#ccc"/>
  <rect x="1440px" y="280px" width="40px" height="40px" fill="#ccc"/>
  <rect x="1480px" y="280px" width="40px" height="40px" fill="#ccc"/>
  <rect x="1520px" y="280px" width="40px" height="40px" fill="#ccc"/>
  <rect x="1560px" y="280px" width="40px" height="40px" fill="#ccc"/>
  <rect x="1600px" y="280px" width="40px" height="40px" fill="#ccc"/>
  <rect x="1640px" y="280px" width="40px" height="40px" fill="#ccc"/>
  <rect x="1680px" y="280px" width="40px" height="40px" fill="#ccc"/>
  <rect x="1720px" y="280px" width="40px" height="40px" fill="#ccc"/>
  <rect x="1760px" y="280px" width="40px" height="40px" fill="#ccc"/>
  <rect x="1800px" y="280px" width="40px" height="40px" fill="#ccc"/>
  <rect x="1840px" y="280px" width="40px" height="40px" fill="#ccc"/>
  <rect x="1880px" y="280px" width="40px" height="40px" fill="#ccc"/>
  <rect x="1920px" y="280px" width="40px" height="40px" fill="#ccc"/>
  <rect x="1960px" y="280px" width="40px" height="40px" fill="#ccc"/>
  <rect x="2e3px" y="280px" width="40px" height="40px" fill="#ccc"/>
  <rect x="2040px" y="280px" width="40px" height="40px" fill="#ccc"/>
  <rect x="2080px" y="280px" width="40px" height="40px" fill="#ccc"/>
  <rect x="2120px" y="280px" width="40px" height="40px" fill="#ccc"/>
  <rect x="2160px" y="280px" width="40px" height="40px" fill="#ccc"/>
  <rect x="2200px" y="280px" width="40px" height="40px" fill="#ccc"/>
  <rect x="2240px" y="280px" width="40px" height="40px" fill="#ccc"/>
  <rect x="2280px" y="280px" width="40px" height="40px" fill="#ccc"/>
  <rect x="2320px" y="280px" width="40px" height="40px" fill="#ccc"/>
  <rect x="2360px" y="280px" width="40px" height="40px" fill="#ccc"/>
  <rect x="2400px" y="280px" width="40px" height="40px" fill="#ccc"/>
  <rect x="2440px" y="280px" width="40px" height="40px" fill="#ccc"/>
  <rect x="2480px" y="280px" width="40px" height="40px" fill="#ccc"/>
  <rect x="2520px" y="280px" width="40px" height="40px" fill="#ccc"/>
  <rect x="2560px" y="280px" width="40px" height="40px" fill="#ccc"/>
  <rect x="2600px" y="280px" width="40px" height="40px" fill="#ccc"/>
  <rect x="2640px" y="280px" width="40px" height="40px" fill="#ccc"/>
  <rect x="2680px" y="280px" width="40px" height="40px" fill="#ccc"/>
  <rect x="2720px" y="280px" width="40px" height="40px" fill="#ccc"/>
  <rect x="2760px" y="280px" width="40px" height="40px" fill="#ccc"/>
  <rect x="2800px" y="280px" width="40px" height="40px" fill="#ccc"/>
  <rect x="2840px" y="280px" width="40px" height="40px" fill="#ccc"/>
  <rect x="2880px" y="280px" width="40px" height="40px" fill="#ccc"/>
  <rect x="2920px" y="280px" width="40px" height="40px" fill="#ccc"/>
  <rect x="2960px" y="280px" width="40px" height="40px" fill="#ccc"/>
  <rect x="3e3px" y="280px" width="40px" height="40px" fill="#ccc"/>
  <rect x="3040px" y="280px" width="40px" height="40px" fill="#ccc"/>
  <rect x="3080px" y="280px" width="40px" height="40px" fill="#ccc"/>
  <rect x="3120px" y="280px" width="40px" height="40px" fill="#ccc"/>
  <rect x="3160px" y="280px" width="40px" height="40px" fill="#ccc"/>
  <rect x="3200px" y="280px" width="40px" height="40px" fill="#ccc"/>
  <rect x="3240px" y="280px" width="40px" height="40px" fill="#ccc"/>
  <rect x="3280px" y="280px" width="40px" height="40px" fill="#ccc"/>
  <rect x="3320px" y="280px" width="40px" height="40px" fill="#ccc"/>
  <rect x="3360px" y="280px" width="40px" height="40px" fill="#ccc"/>
  <rect x="3400px" y="280px" width="40px" height="40px" fill="#ccc"/>
  <rect x="3440px" y="280px" width="40px" height="40px" fill="#ccc"/>
  <rect x="3480px" y="280px" width="40px" height="40px" fill="#ccc"/>
  <rect x="3520px" y="280px" width="40px" height="40px" fill="#ccc"/>
  <rect x="3560px" y="280px" width="40px" height="40px" fill="#ccc"/>
  <rect x="3600px" y="280px" width="40px" height="40px" fill="#ccc"/>
  <rect x="3640px" y="280px" width="40px" height="40px" fill="#ccc"/>
  <rect x="3680px" y="280px" width="40px" height="40px" fill="#ccc"/>
  <rect x="3720px" y="280px" width="40px" height="40px" fill="#ccc"/>
  <rect x="3760px" y="280px" width="40px" height="40px" fill="#ccc"/>
  <rect x="3800px" y="280px" width="40px" height="40px" fill="#ccc"/>
  <rect x="3840px" y="280px" width="40px" height="40px" fill="#ccc"/>
  <rect x="3880px" y="280px" width="40px" height="40px" fill="#ccc"/>
  <rect x="3920px" y="280px" width="40px" height="40px" fill="#ccc"/>
  <rect x="3960px" y="280px" width="40px" height="40px" fill="#ccc"/>
  <rect x="4e3px" y="280px" width="40px" height="40px" fill="#ccc"/>
  <rect x="4040px" y="280px" width="40px" height="40px" fill="#ccc"/>
  <rect x="4080px" y="280px" width="40px" height="40px" fill="#ccc"/>
  <rect x="4120px" y="280px" width="40px" height="40px" fill="#ccc"/>
  <rect x="4160px" y="280px" width="40px" height="40px" fill="#ccc"/>
  <rect x="4200px" y="280px" width="40px" height="40px" fill="#ccc"/>
  <rect x="4240px" y="280px" width="40px" height="40px" fill="#ccc"/>
  <rect x="4280px" y="280px" width="40px" height="40px" fill="#ccc"/>
  <rect x="4320px" y="280px" width="40px" height="40px" fill="#E6E6E6"/>
  <rect x="4360px" y="280px" width="40px" height="40px" fill="#E6E6E6"/>
  <rect x="4400px" y="280px" width="40px" height="40px" fill="#E6E6E6"/>
  <rect x="4440px" y="280px" width="40px" height="40px" fill="#ccc"/>
  <rect x="4480px" y="280px" width="40px" height="40px" fill="#ccc"/>
  <rect x="4520px" y="280px" width="40px" height="40px" fill="#E6E6E6"/>
  <rect x="4560px" y="280px" width="40px" height="40px" fill="#E6E6E6"/>
  <rect x="4600px" y="280px" width="40px" height="40px" fill="#E6E6E6"/>
  <rect x="4640px" y="280px" width="40px" height="40px" fill="#E6E6E6"/>
  <rect x="4680px" y="280px" width="40px" height="40px" fill="#E6E6E6"/>
  <rect x="4720px" y="280px" width="40px" height="40px" fill="#E6E6E6"/>
  <rect x="4760px" y="280px" width="40px" height="40px" fill="#E6E6E6"/>
  <rect x="4800px" y="280px" width="40px" height="40px" fill="#E6E6E6"/>
  <rect x="4840px" y="280px" width="40px" height="40px" fill="#E6E6E6"/>
  <rect x="4880px" y="280px" width="40px" height="40px" fill="#E6E6E6"/>
  <rect x="4920px" y="280px" width="40px" height="40px" fill="#ccc"/>
  <rect x="4960px" y="280px" width="40px" height="40px" fill="#ccc"/>
  <rect x="5e3px" y="280px" width="40px" height="40px" fill="#ccc"/>
  <rect x="5040px" y="280px" width="40px" height="40px" fill="#ccc"/>
  <rect x="5080px" y="280px" width="40px" height="40px" fill="#ccc"/>
  <rect x="5120px" y="280px" width="40px" height="40px" fill="#ccc"/>
  <rect x="5160px" y="280px" width="40px" height="40px" fill="#ccc"/>
  <rect x="5200px" y="280px" width="40px" height="40px" fill="#ccc"/>
  <rect x="5240px" y="280px" width="40px" height="40px" fill="#ccc"/>
  <rect x="5280px" y="280px" width="40px" height="40px" fill="#ccc"/>
  <rect x="5320px" y="280px" width="40px" height="40px" fill="#ccc"/>
  <rect x="5360px" y="280px" width="40px" height="40px" fill="#ccc"/>
  <rect x="5400px" y="280px" width="40px" height="40px" fill="#ccc"/>
  <rect x="5440px" y="280px" width="40px" height="40px" fill="#ccc"/>
  <rect x="5480px" y="280px" width="40px" height="40px" fill="#ccc"/>
  <rect x="5520px" y="280px" width="40px" height="40px" fill="#ccc"/>
  <rect x="5560px" y="280px" width="40px" height="40px" fill="#ccc"/>
  <rect x="5600px" y="280px" width="40px" height="40px" fill="#ccc"/>
  <rect x="5640px" y="280px" width="40px" height="40px" fill="#ccc"/>
  <rect x="5680px" y="280px" width="40px" height="40px" fill="#ccc"/>
  <rect x="5720px" y="280px" width="40px" height="40px" fill="#ccc"/>
  <rect x="5760px" y="280px" width="40px" height="40px" fill="#ccc"/>
  <rect x="5800px" y="280px" width="40px" height="40px" fill="#ccc"/>
  <rect x="5840px" y="280px" width="40px" height="40px" fill="#ccc"/>
  <rect x="5880px" y="280px" width="40px" height="40px" fill="#ccc"/>
  <rect x="5920px" y="280px" width="40px" height="40px" fill="#ccc"/>
  <rect x="5960px" y="280px" width="40px" height="40px" fill="#ccc"/>
</svg>
