<?xml version="1.0" encoding="utf-8" ?>
<svg baseProfile="full" height="1240px" version="1.1" width="1600px" xmlns="http://www.w3.org/2000/svg" xmlns:ev="http://www.w3.org/2001/xml-events" xmlns:xlink="http://www.w3.org/1999/xlink"><defs /><rect fill="rgb(103,135,73)" height="40px" width="40px" x="280px" y="0px" /><rect fill="rgb(103,135,73)" height="40px" width="40px" x="320px" y="0px" /><rect fill="rgb(103,135,73)" height="40px" width="40px" x="360px" y="0px" /><rect fill="rgb(103,135,73)" height="40px" width="40px" x="400px" y="0px" /><rect fill="rgb(103,135,73)" height="40px" width="40px" x="440px" y="0px" /><rect fill="rgb(103,135,73)" height="40px" width="40px" x="480px" y="0px" /><rect fill="rgb(103,135,73)" height="40px" width="40px" x="520px" y="0px" /><rect fill="rgb(103,135,73)" height="40px" width="40px" x="560px" y="0px" /><rect fill="rgb(103,135,73)" height="40px" width="40px" x="600px" y="0px" /><rect fill="rgb(103,135,73)" height="40px" width="40px" x="640px" y="0px" /><rect fill="rgb(103,135,73)" height="40px" width="40px" x="680px" y="0px" /><rect fill="rgb(103,135,73)" height="40px" width="40px" x="720px" y="0px" /><rect fill="rgb(103,135,73)" height="40px" width="40px" x="760px" y="0px" /><rect fill="rgb(103,135,73)" height="40px" width="40px" x="800px" y="0px" /><rect fill="rgb(103,135,73)" height="40px" width="40px" x="840px" y="0px" /><rect fill="rgb(103,135,73)" height="40px" width="40px" x="880px" y="0px" /><rect fill="rgb(103,135,73)" height="40px" width="40px" x="920px" y="0px" /><rect fill="rgb(103,135,73)" height="40px" width="40px" x="960px" y="0px" /><rect fill="rgb(103,135,73)" height="40px" width="40px" x="160px" y="40px" /><rect fill="rgb(103,135,73)" height="40px" width="40px" x="200px" y="40px" /><rect fill="rgb(103,135,73)" height="40px" width="40px" x="240px" y="40px" /><rect fill="rgb(103,135,73)" height="40px" width="40px" x="280px" y="40px" /><rect fill="rgb(103,135,73)" height="40px" width="40px" x="320px" y="40px" /><rect fill="rgb(103,135,73)" height="40px" width="40px" x="360px" y="40px" /><rect fill="rgb(103,135,73)" height="40px" width="40px" x="400px" y="40px" /><rect fill="rgb(103,135,73)" height="40px" width="40px" x="440px" y="40px" /><rect fill="rgb(103,135,73)" height="40px" width="40px" x="480px" y="40px" /><rect fill="rgb(103,135,73)" height="40px" width="40px" x="520px" y="40px" /><rect fill="rgb(103,135,73)" height="40px" width="40px" x="560px" y="40px" /><rect fill="rgb(103,135,73)" height="40px" width="40px" x="600px" y="40px" /><rect fill="rgb(103,135,73)" height="40px" width="40px" x="640px" y="40px" /><rect fill="rgb(103,135,73)" height="40px" width="40px" x="680px" y="40px" /><rect fill="rgb(103,135,73)" height="40px" width="40px" x="720px" y="40px" /><rect fill="rgb(103,135,73)" height="40px" width="40px" x="760px" y="40px" /><rect fill="rgb(103,135,73)" height="40px" width="40px" x="800px" y="40px" /><rect fill="rgb(103,135,73)" height="40px" width="40px" x="840px" y="40px" /><rect fill="rgb(103,135,73)" height="40px" width="40px" x="880px" y="40px" /><rect fill="rgb(103,135,73)" height="40px" width="40px" x="920px" y="40px" /><rect fill="rgb(103,135,73)" height="40px" width="40px" x="960px" y="40px" /><rect fill="rgb(103,135,73)" height="40px" width="40px" x="1000px" y="40px" /><rect fill="rgb(103,135,73)" height="40px" width="40px" x="1040px" y="40px" /><rect fill="rgb(103,135,73)" height="40px" width="40px" x="1080px" y="40px" /><rect fill="rgb(103,135,73)" height="40px" width="40px" x="120px" y="80px" /><rect fill="rgb(103,135,73)" height="40px" width="40px" x="160px" y="80px" /><rect fill="rgb(103,135,73)" height="40px" width="40px" x="200px" y="80px" /><rect fill="rgb(103,135,73)" height="40px" width="40px" x="240px" y="80px" /><rect fill="rgb(103,135,73)" height="40px" width="40px" x="280px" y="80px" /><rect fill="rgb(103,135,73)" height="40px" width="40px" x="320px" y="80px" /><rect fill="rgb(103,135,73)" height="40px" width="40px" x="360px" y="80px" /><rect fill="rgb(103,135,73)" height="40px" width="40px" x="400px" y="80px" /><rect fill="rgb(103,135,73)" height="40px" width="40px" x="440px" y="80px" /><rect fill="rgb(103,135,73)" height="40px" width="40px" x="480px" y="80px" /><rect fill="rgb(103,135,73)" height="40px" width="40px" x="520px" y="80px" /><rect fill="rgb(103,135,73)" height="40px" width="40px" x="560px" y="80px" /><rect fill="rgb(103,135,73)" height="40px" width="40px" x="600px" y="80px" /><rect fill="rgb(103,135,73)" height="40px" width="40px" x="640px" y="80px" /><rect fill="rgb(103,135,73)" height="40px" width="40px" x="680px" y="80px" /><rect fill="rgb(103,135,73)" height="40px" width="40px" x="720px" y="80px" /><rect fill="rgb(103,135,73)" height="40px" width="40px" x="760px" y="80px" /><rect fill="rgb(103,135,73)" height="40px" width="40px" x="800px" y="80px" /><rect fill="rgb(103,135,73)" height="40px" width="40px" x="840px" y="80px" /><rect fill="rgb(103,135,73)" height="40px" width="40px" x="880px" y="80px" /><rect fill="rgb(103,135,73)" height="40px" width="40px" x="920px" y="80px" /><rect fill="rgb(103,135,73)" height="40px" width="40px" x="960px" y="80px" /><rect fill="rgb(103,135,73)" height="40px" width="40px" x="1000px" y="80px" /><rect fill="rgb(103,135,73)" height="40px" width="40px" x="1040px" y="80px" /><rect fill="rgb(103,135,73)" height="40px" width="40px" x="1080px" y="80px" /><rect fill="rgb(103,135,73)" height="40px" width="40px" x="1120px" y="80px" /><rect fill="rgb(103,135,73)" height="40px" width="40px" x="1160px" y="80px" /><rect fill="rgb(103,135,73)" height="40px" width="40px" x="80px" y="120px" /><rect fill="rgb(103,135,73)" height="40px" width="40px" x="120px" y="120px" /><rect fill="rgb(103,135,73)" height="40px" width="40px" x="160px" y="120px" /><rect fill="rgb(103,135,73)" height="40px" width="40px" x="200px" y="120px" /><rect fill="rgb(103,135,73)" height="40px" width="40px" x="240px" y="120px" /><rect fill="rgb(103,135,73)" height="40px" width="40px" x="280px" y="120px" /><rect fill="rgb(103,135,73)" height="40px" width="40px" x="320px" y="120px" /><rect fill="rgb(103,135,73)" height="40px" width="40px" x="360px" y="120px" /><rect fill="rgb(103,135,73)" height="40px" width="40px" x="400px" y="120px" /><rect fill="rgb(103,135,73)" height="40px" width="40px" x="440px" y="120px" /><rect fill="rgb(103,135,73)" height="40px" width="40px" x="480px" y="120px" /><rect fill="rgb(103,135,73)" height="40px" width="40px" x="520px" y="120px" /><rect fill="rgb(103,135,73)" height="40px" width="40px" x="560px" y="120px" /><rect fill="rgb(103,135,73)" height="40px" width="40px" x="600px" y="120px" /><rect fill="rgb(103,135,73)" height="40px" width="40px" x="640px" y="120px" /><rect fill="rgb(103,135,73)" height="40px" width="40px" x="680px" y="120px" /><rect fill="rgb(103,135,73)" height="40px" width="40px" x="720px" y="120px" /><rect fill="rgb(103,135,73)" height="40px" width="40px" x="760px" y="120px" /><rect fill="rgb(103,135,73)" height="40px" width="40px" x="800px" y="120px" /><rect fill="rgb(103,135,73)" height="40px" width="40px" x="840px" y="120px" /><rect fill="rgb(103,135,73)" height="40px" width="40px" x="880px" y="120px" /><rect fill="rgb(103,135,73)" height="40px" width="40px" x="920px" y="120px" /><rect fill="rgb(103,135,73)" height="40px" width="40px" x="960px" y="120px" /><rect fill="rgb(103,135,73)" height="40px" width="40px" x="1000px" y="120px" /><rect fill="rgb(103,135,73)" height="40px" width="40px" x="1040px" y="120px" /><rect fill="rgb(103,135,73)" height="40px" width="40px" x="1080px" y="120px" /><rect fill="rgb(103,135,73)" height="40px" width="40px" x="1120px" y="120px" /><rect fill="rgb(103,135,73)" height="40px" width="40px" x="1160px" y="120px" /><rect fill="rgb(120,173,70)" height="40px" width="40px" x="40px" y="160px" /><rect fill="rgb(103,135,73)" height="40px" width="40px" x="80px" y="160px" /><rect fill="rgb(120,173,70)" height="40px" width="40px" x="120px" y="160px" /><rect fill="rgb(103,135,73)" height="40px" width="40px" x="160px" y="160px" /><rect fill="rgb(103,135,73)" height="40px" width="40px" x="200px" y="160px" /><rect fill="rgb(103,135,73)" height="40px" width="40px" x="240px" y="160px" /><rect fill="rgb(103,135,73)" height="40px" width="40px" x="280px" y="160px" /><rect fill="rgb(103,135,73)" height="40px" width="40px" x="320px" y="160px" /><rect fill="rgb(103,135,73)" height="40px" width="40px" x="360px" y="160px" /><rect fill="rgb(103,135,73)" height="40px" width="40px" x="400px" y="160px" /><rect fill="rgb(103,135,73)" height="40px" width="40px" x="440px" y="160px" /><rect fill="rgb(103,135,73)" height="40px" width="40px" x="480px" y="160px" /><rect fill="rgb(103,135,73)" height="40px" width="40px" x="520px" y="160px" /><rect fill="rgb(103,135,73)" height="40px" width="40px" x="560px" y="160px" /><rect fill="rgb(103,135,73)" height="40px" width="40px" x="600px" y="160px" /><rect fill="rgb(103,135,73)" height="40px" width="40px" x="640px" y="160px" /><rect fill="rgb(103,135,73)" height="40px" width="40px" x="680px" y="160px" /><rect fill="rgb(103,135,73)" height="40px" width="40px" x="720px" y="160px" /><rect fill="rgb(103,135,73)" height="40px" width="40px" x="760px" y="160px" /><rect fill="rgb(103,135,73)" height="40px" width="40px" x="800px" y="160px" /><rect fill="rgb(103,135,73)" height="40px" width="40px" x="840px" y="160px" /><rect fill="rgb(103,135,73)" height="40px" width="40px" x="880px" y="160px" /><rect fill="rgb(103,135,73)" height="40px" width="40px" x="920px" y="160px" /><rect fill="rgb(103,135,73)" height="40px" width="40px" x="960px" y="160px" /><rect fill="rgb(103,135,73)" height="40px" width="40px" x="1000px" y="160px" /><rect fill="rgb(103,135,73)" height="40px" width="40px" x="1040px" y="160px" /><rect fill="rgb(103,135,73)" height="40px" width="40px" x="1080px" y="160px" /><rect fill="rgb(103,135,73)" height="40px" width="40px" x="1120px" y="160px" /><rect fill="rgb(103,135,73)" height="40px" width="40px" x="1160px" y="160px" /><rect fill="rgb(120,173,70)" height="40px" width="40px" x="40px" y="200px" /><rect fill="rgb(120,173,70)" height="40px" width="40px" x="80px" y="200px" /><rect fill="rgb(120,173,70)" height="40px" width="40px" x="120px" y="200px" /><rect fill="rgb(120,173,70)" height="40px" width="40px" x="160px" y="200px" /><rect fill="rgb(103,135,73)" height="40px" width="40px" x="200px" y="200px" /><rect fill="rgb(103,135,73)" height="40px" width="40px" x="240px" y="200px" /><rect fill="rgb(103,135,73)" height="40px" width="40px" x="280px" y="200px" /><rect fill="rgb(103,135,73)" height="40px" width="40px" x="320px" y="200px" /><rect fill="rgb(103,135,73)" height="40px" width="40px" x="360px" y="200px" /><rect fill="rgb(103,135,73)" height="40px" width="40px" x="400px" y="200px" /><rect fill="rgb(103,135,73)" height="40px" width="40px" x="440px" y="200px" /><rect fill="rgb(103,135,73)" height="40px" width="40px" x="480px" y="200px" /><rect fill="rgb(103,135,73)" height="40px" width="40px" x="520px" y="200px" /><rect fill="rgb(103,135,73)" height="40px" width="40px" x="560px" y="200px" /><rect fill="rgb(103,135,73)" height="40px" width="40px" x="600px" y="200px" /><rect fill="rgb(103,135,73)" height="40px" width="40px" x="640px" y="200px" /><rect fill="rgb(103,135,73)" height="40px" width="40px" x="680px" y="200px" /><rect fill="rgb(103,135,73)" height="40px" width="40px" x="720px" y="200px" /><rect fill="rgb(103,135,73)" height="40px" width="40px" x="760px" y="200px" /><rect fill="rgb(103,135,73)" height="40px" width="40px" x="800px" y="200px" /><rect fill="rgb(103,135,73)" height="40px" width="40px" x="840px" y="200px" /><rect fill="rgb(103,135,73)" height="40px" width="40px" x="880px" y="200px" /><rect fill="rgb(103,135,73)" height="40px" width="40px" x="920px" y="200px" /><rect fill="rgb(103,135,73)" height="40px" width="40px" x="960px" y="200px" /><rect fill="rgb(103,135,73)" height="40px" width="40px" x="1000px" y="200px" /><rect fill="rgb(103,135,73)" height="40px" width="40px" x="1040px" y="200px" /><rect fill="rgb(103,135,73)" height="40px" width="40px" x="1080px" y="200px" /><rect fill="rgb(103,135,73)" height="40px" width="40px" x="1120px" y="200px" /><rect fill="rgb(103,135,73)" height="40px" width="40px" x="1160px" y="200px" /><rect fill="rgb(163,225,103)" height="40px" width="40px" x="40px" y="240px" /><rect fill="rgb(120,173,70)" height="40px" width="40px" x="80px" y="240px" /><rect fill="rgb(120,173,70)" height="40px" width="40px" x="120px" y="240px" /><rect fill="rgb(120,173,70)" height="40px" width="40px" x="160px" y="240px" /><rect fill="rgb(120,173,70)" height="40px" width="40px" x="200px" y="240px" /><rect fill="rgb(120,173,70)" height="40px" width="40px" x="240px" y="240px" /><rect fill="rgb(120,173,70)" height="40px" width="40px" x="280px" y="240px" /><rect fill="rgb(103,135,73)" height="40px" width="40px" x="320px" y="240px" /><rect fill="rgb(120,173,70)" height="40px" width="40px" x="360px" y="240px" /><rect fill="rgb(120,173,70)" height="40px" width="40px" x="400px" y="240px" /><rect fill="rgb(103,135,73)" height="40px" width="40px" x="440px" y="240px" /><rect fill="rgb(103,135,73)" height="40px" width="40px" x="480px" y="240px" /><rect fill="rgb(103,135,73)" height="40px" width="40px" x="520px" y="240px" /><rect fill="rgb(103,135,73)" height="40px" width="40px" x="560px" y="240px" /><rect fill="rgb(103,135,73)" height="40px" width="40px" x="600px" y="240px" /><rect fill="rgb(103,135,73)" height="40px" width="40px" x="640px" y="240px" /><rect fill="rgb(103,135,73)" height="40px" width="40px" x="680px" y="240px" /><rect fill="rgb(103,135,73)" height="40px" width="40px" x="720px" y="240px" /><rect fill="rgb(103,135,73)" height="40px" width="40px" x="760px" y="240px" /><rect fill="rgb(103,135,73)" height="40px" width="40px" x="800px" y="240px" /><rect fill="rgb(120,173,70)" height="40px" width="40px" x="840px" y="240px" /><rect fill="rgb(120,173,70)" height="40px" width="40px" x="880px" y="240px" /><rect fill="rgb(103,135,73)" height="40px" width="40px" x="920px" y="240px" /><rect fill="rgb(103,135,73)" height="40px" width="40px" x="960px" y="240px" /><rect fill="rgb(103,135,73)" height="40px" width="40px" x="1000px" y="240px" /><rect fill="rgb(103,135,73)" height="40px" width="40px" x="1040px" y="240px" /><rect fill="rgb(103,135,73)" height="40px" width="40px" x="1080px" y="240px" /><rect fill="rgb(103,135,73)" height="40px" width="40px" x="1120px" y="240px" /><rect fill="rgb(120,173,70)" height="40px" width="40px" x="1200px" y="240px" /><rect fill="rgb(103,135,73)" height="40px" width="40px" x="1240px" y="240px" /><rect fill="rgb(163,225,103)" height="40px" width="40px" x="80px" y="280px" /><rect fill="rgb(163,225,103)" height="40px" width="40px" x="120px" y="280px" /><rect fill="rgb(120,173,70)" height="40px" width="40px" x="160px" y="280px" /><rect fill="rgb(163,225,103)" height="40px" width="40px" x="200px" y="280px" /><rect fill="rgb(163,225,103)" height="40px" width="40px" x="240px" y="280px" /><rect fill="rgb(120,173,70)" height="40px" width="40px" x="280px" y="280px" /><rect fill="rgb(120,173,70)" height="40px" width="40px" x="320px" y="280px" /><rect fill="rgb(120,173,70)" height="40px" width="40px" x="360px" y="280px" /><rect fill="rgb(120,173,70)" height="40px" width="40px" x="400px" y="280px" /><rect fill="rgb(120,173,70)" height="40px" width="40px" x="440px" y="280px" /><rect fill="rgb(120,173,70)" height="40px" width="40px" x="480px" y="280px" /><rect fill="rgb(103,135,73)" height="40px" width="40px" x="520px" y="280px" /><rect fill="rgb(103,135,73)" height="40px" width="40px" x="560px" y="280px" /><rect fill="rgb(103,135,73)" height="40px" width="40px" x="600px" y="280px" /><rect fill="rgb(103,135,73)" height="40px" width="40px" x="640px" y="280px" /><rect fill="rgb(103,135,73)" height="40px" width="40px" x="680px" y="280px" /><rect fill="rgb(103,135,73)" height="40px" width="40px" x="720px" y="280px" /><rect fill="rgb(103,135,73)" height="40px" width="40px" x="760px" y="280px" /><rect fill="rgb(120,173,70)" height="40px" width="40px" x="800px" y="280px" /><rect fill="rgb(120,173,70)" height="40px" width="40px" x="840px" y="280px" /><rect fill="rgb(120,173,70)" height="40px" width="40px" x="880px" y="280px" /><rect fill="rgb(120,173,70)" height="40px" width="40px" x="920px" y="280px" /><rect fill="rgb(103,135,73)" height="40px" width="40px" x="960px" y="280px" /><rect fill="rgb(103,135,73)" height="40px" width="40px" x="1000px" y="280px" /><rect fill="rgb(103,135,73)" height="40px" width="40px" x="1040px" y="280px" /><rect fill="rgb(103,135,73)" height="40px" width="40px" x="1080px" y="280px" /><rect fill="rgb(120,173,70)" height="40px" width="40px" x="1120px" y="280px" /><rect fill="rgb(120,173,70)" height="40px" width="40px" x="1160px" y="280px" /><rect fill="rgb(103,135,73)" height="40px" width="40px" x="1200px" y="280px" /><rect fill="rgb(103,135,73)" height="40px" width="40px" x="1240px" y="280px" /><rect fill="rgb(103,135,73)" height="40px" width="40px" x="1280px" y="280px" /><rect fill="rgb(103,135,73)" height="40px" width="40px" x="1320px" y="280px" /><rect fill="rgb(103,135,73)" height="40px" width="40px" x="1360px" y="280px" /><rect fill="rgb(103,135,73)" height="40px" width="40px" x="1400px" y="280px" /><rect fill="rgb(103,135,73)" height="40px" width="40px" x="1440px" y="280px" /><rect fill="rgb(103,135,73)" height="40px" width="40px" x="1480px" y="280px" /><rect fill="rgb(163,225,103)" height="40px" width="40px" x="120px" y="320px" /><rect fill="rgb(163,225,103)" height="40px" width="40px" x="160px" y="320px" /><rect fill="rgb(135,83,73)" height="40px" width="40px" x="320px" y="320px" /><rect fill="rgb(163,225,103)" height="40px" width="40px" x="360px" y="320px" /><rect fill="rgb(163,225,103)" height="40px" width="40px" x="400px" y="320px" /><rect fill="rgb(163,225,103)" height="40px" width="40px" x="440px" y="320px" /><rect fill="rgb(120,173,70)" height="40px" width="40px" x="480px" y="320px" /><rect fill="rgb(120,173,70)" height="40px" width="40px" x="520px" y="320px" /><rect fill="rgb(120,173,70)" height="40px" width="40px" x="560px" y="320px" /><rect fill="rgb(120,173,70)" height="40px" width="40px" x="600px" y="320px" /><rect fill="rgb(103,135,73)" height="40px" width="40px" x="640px" y="320px" /><rect fill="rgb(103,135,73)" height="40px" width="40px" x="680px" y="320px" /><rect fill="rgb(120,173,70)" height="40px" width="40px" x="720px" y="320px" /><rect fill="rgb(120,173,70)" height="40px" width="40px" x="760px" y="320px" /><rect fill="rgb(120,173,70)" height="40px" width="40px" x="800px" y="320px" /><rect fill="rgb(163,225,103)" height="40px" width="40px" x="840px" y="320px" /><rect fill="rgb(163,225,103)" height="40px" width="40px" x="1080px" y="320px" /><rect fill="rgb(120,173,70)" height="40px" width="40px" x="1120px" y="320px" /><rect fill="rgb(120,173,70)" height="40px" width="40px" x="1160px" y="320px" /><rect fill="rgb(103,135,73)" height="40px" width="40px" x="1200px" y="320px" /><rect fill="rgb(103,135,73)" height="40px" width="40px" x="1240px" y="320px" /><rect fill="rgb(103,135,73)" height="40px" width="40px" x="1280px" y="320px" /><rect fill="rgb(103,135,73)" height="40px" width="40px" x="1320px" y="320px" /><rect fill="rgb(103,135,73)" height="40px" width="40px" x="1360px" y="320px" /><rect fill="rgb(103,135,73)" height="40px" width="40px" x="1400px" y="320px" /><rect fill="rgb(103,135,73)" height="40px" width="40px" x="1440px" y="320px" /><rect fill="rgb(103,135,73)" height="40px" width="40px" x="1480px" y="320px" /><rect fill="rgb(103,135,73)" height="40px" width="40px" x="1520px" y="320px" /><rect fill="rgb(135,83,73)" height="40px" width="40px" x="360px" y="360px" /><rect fill="rgb(135,83,73)" height="40px" width="40px" x="400px" y="360px" /><rect fill="rgb(102,57,49)" height="40px" width="40px" x="440px" y="360px" /><rect fill="rgb(102,57,49)" height="40px" width="40px" x="480px" y="360px" /><rect fill="rgb(102,57,49)" height="40px" width="40px" x="760px" y="360px" /><rect fill="rgb(102,57,49)" height="40px" width="40px" x="800px" y="360px" /><rect fill="rgb(135,83,73)" height="40px" width="40px" x="840px" y="360px" /><rect fill="rgb(135,83,73)" height="40px" width="40px" x="880px" y="360px" /><rect fill="rgb(102,57,49)" height="40px" width="40px" x="920px" y="360px" /><rect fill="rgb(102,57,49)" height="40px" width="40px" x="960px" y="360px" /><rect fill="rgb(102,57,49)" height="40px" width="40px" x="1000px" y="360px" /><rect fill="rgb(102,57,49)" height="40px" width="40px" x="1040px" y="360px" /><rect fill="rgb(163,225,103)" height="40px" width="40px" x="1080px" y="360px" /><rect fill="rgb(163,225,103)" height="40px" width="40px" x="1120px" y="360px" /><rect fill="rgb(120,173,70)" height="40px" width="40px" x="1160px" y="360px" /><rect fill="rgb(120,173,70)" height="40px" width="40px" x="1200px" y="360px" /><rect fill="rgb(120,173,70)" height="40px" width="40px" x="1240px" y="360px" /><rect fill="rgb(103,135,73)" height="40px" width="40px" x="1280px" y="360px" /><rect fill="rgb(103,135,73)" height="40px" width="40px" x="1320px" y="360px" /><rect fill="rgb(103,135,73)" height="40px" width="40px" x="1360px" y="360px" /><rect fill="rgb(103,135,73)" height="40px" width="40px" x="1400px" y="360px" /><rect fill="rgb(103,135,73)" height="40px" width="40px" x="1440px" y="360px" /><rect fill="rgb(103,135,73)" height="40px" width="40px" x="1480px" y="360px" /><rect fill="rgb(103,135,73)" height="40px" width="40px" x="1520px" y="360px" /><rect fill="rgb(102,57,49)" height="40px" width="40px" x="480px" y="400px" /><rect fill="rgb(203,203,203)" height="40px" width="40px" x="520px" y="400px" /><rect fill="rgb(135,83,73)" height="40px" width="40px" x="560px" y="400px" /><rect fill="rgb(135,83,73)" height="40px" width="40px" x="600px" y="400px" /><rect fill="rgb(135,83,73)" height="40px" width="40px" x="640px" y="400px" /><rect fill="rgb(135,83,73)" height="40px" width="40px" x="680px" y="400px" /><rect fill="rgb(203,203,203)" height="40px" width="40px" x="720px" y="400px" /><rect fill="rgb(102,57,49)" height="40px" width="40px" x="760px" y="400px" /><rect fill="rgb(102,57,49)" height="40px" width="40px" x="1040px" y="400px" /><rect fill="rgb(102,57,49)" height="40px" width="40px" x="1080px" y="400px" /><rect fill="rgb(163,225,103)" height="40px" width="40px" x="1120px" y="400px" /><rect fill="rgb(163,225,103)" height="40px" width="40px" x="1160px" y="400px" /><rect fill="rgb(120,173,70)" height="40px" width="40px" x="1200px" y="400px" /><rect fill="rgb(120,173,70)" height="40px" width="40px" x="1240px" y="400px" /><rect fill="rgb(120,173,70)" height="40px" width="40px" x="1280px" y="400px" /><rect fill="rgb(103,135,73)" height="40px" width="40px" x="1320px" y="400px" /><rect fill="rgb(103,135,73)" height="40px" width="40px" x="1360px" y="400px" /><rect fill="rgb(103,135,73)" height="40px" width="40px" x="1400px" y="400px" /><rect fill="rgb(103,135,73)" height="40px" width="40px" x="1440px" y="400px" /><rect fill="rgb(103,135,73)" height="40px" width="40px" x="1480px" y="400px" /><rect fill="rgb(103,135,73)" height="40px" width="40px" x="1520px" y="400px" /><rect fill="rgb(120,173,70)" height="40px" width="40px" x="880px" y="440px" /><rect fill="rgb(120,173,70)" height="40px" width="40px" x="920px" y="440px" /><rect fill="rgb(102,57,49)" height="40px" width="40px" x="1080px" y="440px" /><rect fill="rgb(102,57,49)" height="40px" width="40px" x="1160px" y="440px" /><rect fill="rgb(163,225,103)" height="40px" width="40px" x="1200px" y="440px" /><rect fill="rgb(120,173,70)" height="40px" width="40px" x="1240px" y="440px" /><rect fill="rgb(120,173,70)" height="40px" width="40px" x="1280px" y="440px" /><rect fill="rgb(120,173,70)" height="40px" width="40px" x="1320px" y="440px" /><rect fill="rgb(120,173,70)" height="40px" width="40px" x="1360px" y="440px" /><rect fill="rgb(103,135,73)" height="40px" width="40px" x="1400px" y="440px" /><rect fill="rgb(103,135,73)" height="40px" width="40px" x="1440px" y="440px" /><rect fill="rgb(103,135,73)" height="40px" width="40px" x="1480px" y="440px" /><rect fill="rgb(203,203,203)" height="40px" width="40px" x="520px" y="480px" /><rect fill="rgb(203,203,203)" height="40px" width="40px" x="720px" y="480px" /><rect fill="rgb(163,225,103)" height="40px" width="40px" x="840px" y="480px" /><rect fill="rgb(163,225,103)" height="40px" width="40px" x="880px" y="480px" /><rect fill="rgb(135,83,73)" height="40px" width="40px" x="960px" y="480px" /><rect fill="rgb(102,57,49)" height="40px" width="40px" x="1080px" y="480px" /><rect fill="rgb(102,57,49)" height="40px" width="40px" x="1120px" y="480px" /><rect fill="rgb(102,57,49)" height="40px" width="40px" x="1160px" y="480px" /><rect fill="rgb(203,203,203)" height="40px" width="40px" x="520px" y="520px" /><rect fill="rgb(203,203,203)" height="40px" width="40px" x="720px" y="520px" /><rect fill="rgb(135,83,73)" height="40px" width="40px" x="1000px" y="520px" /><rect fill="rgb(102,57,49)" height="40px" width="40px" x="1080px" y="520px" /><rect fill="rgb(102,57,49)" height="40px" width="40px" x="1120px" y="520px" /><rect fill="rgb(102,57,49)" height="40px" width="40px" x="1160px" y="520px" /><rect fill="rgb(102,57,49)" height="40px" width="40px" x="1040px" y="560px" /><rect fill="rgb(102,57,49)" height="40px" width="40px" x="1080px" y="560px" /><rect fill="rgb(102,57,49)" height="40px" width="40px" x="1120px" y="560px" /><rect fill="rgb(102,57,49)" height="40px" width="40px" x="1160px" y="560px" /><rect fill="rgb(203,203,203)" height="40px" width="40px" x="520px" y="600px" /><rect fill="rgb(45,45,45)" height="40px" width="40px" x="600px" y="600px" /><rect fill="rgb(45,45,45)" height="40px" width="40px" x="640px" y="600px" /><rect fill="rgb(203,203,203)" height="40px" width="40px" x="720px" y="600px" /><rect fill="rgb(102,57,49)" height="40px" width="40px" x="1040px" y="600px" /><rect fill="rgb(102,57,49)" height="40px" width="40px" x="1080px" y="600px" /><rect fill="rgb(102,57,49)" height="40px" width="40px" x="1120px" y="600px" /><rect fill="rgb(45,45,45)" height="40px" width="40px" x="560px" y="640px" /><rect fill="rgb(37,37,37)" height="40px" width="40px" x="600px" y="640px" /><rect fill="rgb(37,37,37)" height="40px" width="40px" x="640px" y="640px" /><rect fill="rgb(45,45,45)" height="40px" width="40px" x="680px" y="640px" /><rect fill="rgb(102,57,49)" height="40px" width="40px" x="1040px" y="640px" /><rect fill="rgb(102,57,49)" height="40px" width="40px" x="1080px" y="640px" /><rect fill="rgb(102,57,49)" height="40px" width="40px" x="1120px" y="640px" /><rect fill="rgb(203,203,203)" height="40px" width="40px" x="520px" y="680px" /><rect fill="rgb(30,30,30)" height="40px" width="40px" x="560px" y="680px" /><rect fill="rgb(238,195,154)" height="40px" width="40px" x="600px" y="680px" /><rect fill="rgb(238,195,154)" height="40px" width="40px" x="640px" y="680px" /><rect fill="rgb(30,30,30)" height="40px" width="40px" x="680px" y="680px" /><rect fill="rgb(203,203,203)" height="40px" width="40px" x="720px" y="680px" /><rect fill="rgb(135,83,73)" height="40px" width="40px" x="1040px" y="680px" /><rect fill="rgb(102,57,49)" height="40px" width="40px" x="1080px" y="680px" /><rect fill="rgb(102,57,49)" height="40px" width="40px" x="1120px" y="680px" /><rect fill="rgb(203,203,203)" height="40px" width="40px" x="520px" y="720px" /><rect fill="rgb(238,195,154)" height="40px" width="40px" x="560px" y="720px" /><rect fill="rgb(238,195,154)" height="40px" width="40px" x="600px" y="720px" /><rect fill="rgb(238,195,154)" height="40px" width="40px" x="640px" y="720px" /><rect fill="rgb(238,195,154)" height="40px" width="40px" x="680px" y="720px" /><rect fill="rgb(203,203,203)" height="40px" width="40px" x="720px" y="720px" /><rect fill="rgb(135,83,73)" height="40px" width="40px" x="1040px" y="720px" /><rect fill="rgb(102,57,49)" height="40px" width="40px" x="1080px" y="720px" /><rect fill="rgb(102,57,49)" height="40px" width="40px" x="1120px" y="720px" /><rect fill="rgb(103,135,73)" height="40px" width="40px" x="1200px" y="720px" /><rect fill="rgb(238,195,154)" height="40px" width="40px" x="480px" y="760px" /><rect fill="rgb(238,195,154)" height="40px" width="40px" x="560px" y="760px" /><rect fill="rgb(238,195,154)" height="40px" width="40px" x="600px" y="760px" /><rect fill="rgb(238,195,154)" height="40px" width="40px" x="640px" y="760px" /><rect fill="rgb(238,195,154)" height="40px" width="40px" x="680px" y="760px" /><rect fill="rgb(135,83,73)" height="40px" width="40px" x="1040px" y="760px" /><rect fill="rgb(102,57,49)" height="40px" width="40px" x="1080px" y="760px" /><rect fill="rgb(102,57,49)" height="40px" width="40px" x="1120px" y="760px" /><rect fill="rgb(102,57,49)" height="40px" width="40px" x="1160px" y="760px" /><rect fill="rgb(238,195,154)" height="40px" width="40px" x="480px" y="800px" /><rect fill="rgb(203,203,203)" height="40px" width="40px" x="520px" y="800px" /><rect fill="rgb(238,195,154)" height="40px" width="40px" x="600px" y="800px" /><rect fill="rgb(238,195,154)" height="40px" width="40px" x="640px" y="800px" /><rect fill="rgb(203,203,203)" height="40px" width="40px" x="720px" y="800px" /><rect fill="rgb(135,83,73)" height="40px" width="40px" x="1040px" y="800px" /><rect fill="rgb(102,57,49)" height="40px" width="40px" x="1080px" y="800px" /><rect fill="rgb(102,57,49)" height="40px" width="40px" x="1120px" y="800px" /><rect fill="rgb(45,45,45)" height="40px" width="40px" x="480px" y="840px" /><rect fill="rgb(45,45,45)" height="40px" width="40px" x="560px" y="840px" /><rect fill="rgb(30,30,30)" height="40px" width="40px" x="600px" y="840px" /><rect fill="rgb(30,30,30)" height="40px" width="40px" x="640px" y="840px" /><rect fill="rgb(30,30,30)" height="40px" width="40px" x="680px" y="840px" /><rect fill="rgb(135,83,73)" height="40px" width="40px" x="1040px" y="840px" /><rect fill="rgb(102,57,49)" height="40px" width="40px" x="1080px" y="840px" /><rect fill="rgb(102,57,49)" height="40px" width="40px" x="1120px" y="840px" /><rect fill="rgb(45,45,45)" height="40px" width="40px" x="520px" y="880px" /><rect fill="rgb(30,30,30)" height="40px" width="40px" x="560px" y="880px" /><rect fill="rgb(30,30,30)" height="40px" width="40px" x="600px" y="880px" /><rect fill="rgb(30,30,30)" height="40px" width="40px" x="640px" y="880px" /><rect fill="rgb(30,30,30)" height="40px" width="40px" x="680px" y="880px" /><rect fill="rgb(30,30,30)" height="40px" width="40px" x="720px" y="880px" /><rect fill="rgb(135,83,73)" height="40px" width="40px" x="1000px" y="880px" /><rect fill="rgb(102,57,49)" height="40px" width="40px" x="1040px" y="880px" /><rect fill="rgb(102,57,49)" height="40px" width="40px" x="1080px" y="880px" /><rect fill="rgb(102,57,49)" height="40px" width="40px" x="1120px" y="880px" /><rect fill="rgb(203,203,203)" height="40px" width="40px" x="520px" y="920px" /><rect fill="rgb(30,30,30)" height="40px" width="40px" x="560px" y="920px" /><rect fill="rgb(30,30,30)" height="40px" width="40px" x="600px" y="920px" /><rect fill="rgb(30,30,30)" height="40px" width="40px" x="640px" y="920px" /><rect fill="rgb(30,30,30)" height="40px" width="40px" x="680px" y="920px" /><rect fill="rgb(238,195,154)" height="40px" width="40px" x="720px" y="920px" /><rect fill="rgb(135,83,73)" height="40px" width="40px" x="1000px" y="920px" /><rect fill="rgb(102,57,49)" height="40px" width="40px" x="1040px" y="920px" /><rect fill="rgb(102,57,49)" height="40px" width="40px" x="1080px" y="920px" /><rect fill="rgb(102,57,49)" height="40px" width="40px" x="1120px" y="920px" /><rect fill="rgb(30,30,30)" height="40px" width="40px" x="560px" y="960px" /><rect fill="rgb(30,30,30)" height="40px" width="40px" x="600px" y="960px" /><rect fill="rgb(30,30,30)" height="40px" width="40px" x="640px" y="960px" /><rect fill="rgb(30,30,30)" height="40px" width="40px" x="680px" y="960px" /><rect fill="rgb(102,57,49)" height="40px" width="40px" x="1000px" y="960px" /><rect fill="rgb(102,57,49)" height="40px" width="40px" x="1040px" y="960px" /><rect fill="rgb(102,57,49)" height="40px" width="40px" x="1080px" y="960px" /><rect fill="rgb(102,57,49)" height="40px" width="40px" x="1120px" y="960px" /><rect fill="rgb(102,57,49)" height="40px" width="40px" x="1160px" y="960px" /><rect fill="rgb(103,135,73)" height="40px" width="40px" x="1240px" y="960px" /><rect fill="rgb(203,203,203)" height="40px" width="40px" x="520px" y="1000px" /><rect fill="rgb(45,45,45)" height="40px" width="40px" x="560px" y="1000px" /><rect fill="rgb(135,83,73)" height="40px" width="40px" x="600px" y="1000px" /><rect fill="rgb(135,83,73)" height="40px" width="40px" x="640px" y="1000px" /><rect fill="rgb(45,45,45)" height="40px" width="40px" x="680px" y="1000px" /><rect fill="rgb(203,203,203)" height="40px" width="40px" x="720px" y="1000px" /><rect fill="rgb(135,83,73)" height="40px" width="40px" x="960px" y="1000px" /><rect fill="rgb(102,57,49)" height="40px" width="40px" x="1000px" y="1000px" /><rect fill="rgb(102,57,49)" height="40px" width="40px" x="1040px" y="1000px" /><rect fill="rgb(102,57,49)" height="40px" width="40px" x="1080px" y="1000px" /><rect fill="rgb(102,57,49)" height="40px" width="40px" x="1120px" y="1000px" /><rect fill="rgb(102,57,49)" height="40px" width="40px" x="1160px" y="1000px" /><rect fill="rgb(103,135,73)" height="40px" width="40px" x="1200px" y="1000px" /><rect fill="rgb(103,135,73)" height="40px" width="40px" x="1320px" y="1000px" /><rect fill="rgb(103,135,73)" height="40px" width="40px" x="1480px" y="1000px" /><rect fill="rgb(103,135,73)" height="40px" width="40px" x="1520px" y="1000px" /><rect fill="rgb(37,37,37)" height="40px" width="40px" x="560px" y="1040px" /><rect fill="rgb(37,37,37)" height="40px" width="40px" x="680px" y="1040px" /><rect fill="rgb(102,57,49)" height="40px" width="40px" x="1040px" y="1040px" /><rect fill="rgb(102,57,49)" height="40px" width="40px" x="1080px" y="1040px" /><rect fill="rgb(102,57,49)" height="40px" width="40px" x="1120px" y="1040px" /><rect fill="rgb(102,57,49)" height="40px" width="40px" x="1160px" y="1040px" /><rect fill="rgb(102,57,49)" height="40px" width="40px" x="1200px" y="1040px" /><rect fill="rgb(103,135,73)" height="40px" width="40px" x="1240px" y="1040px" /><rect fill="rgb(103,135,73)" height="40px" width="40px" x="1320px" y="1040px" /><rect fill="rgb(103,135,73)" height="40px" width="40px" x="1400px" y="1040px" /><rect fill="rgb(103,135,73)" height="40px" width="40px" x="1520px" y="1040px" /><rect fill="rgb(103,135,73)" height="40px" width="40px" x="1560px" y="1040px" /><rect fill="rgb(37,37,37)" height="40px" width="40px" x="560px" y="1080px" /><rect fill="rgb(37,37,37)" height="40px" width="40px" x="680px" y="1080px" /><rect fill="rgb(102,57,49)" height="40px" width="40px" x="1080px" y="1080px" /><rect fill="rgb(102,57,49)" height="40px" width="40px" x="1120px" y="1080px" /><rect fill="rgb(102,57,49)" height="40px" width="40px" x="1160px" y="1080px" /><rect fill="rgb(102,57,49)" height="40px" width="40px" x="1200px" y="1080px" /><rect fill="rgb(102,57,49)" height="40px" width="40px" x="1240px" y="1080px" /><rect fill="rgb(103,135,73)" height="40px" width="40px" x="1280px" y="1080px" /><rect fill="rgb(103,135,73)" height="40px" width="40px" x="1360px" y="1080px" /><rect fill="rgb(103,135,73)" height="40px" width="40px" x="1520px" y="1080px" /><rect fill="rgb(103,135,73)" height="40px" width="40px" x="1560px" y="1080px" /><rect fill="rgb(102,57,49)" height="40px" width="40px" x="1120px" y="1120px" /><rect fill="rgb(102,57,49)" height="40px" width="40px" x="1160px" y="1120px" /><rect fill="rgb(102,57,49)" height="40px" width="40px" x="1200px" y="1120px" /><rect fill="rgb(102,57,49)" height="40px" width="40px" x="1240px" y="1120px" /><rect fill="rgb(103,135,73)" height="40px" width="40px" x="1280px" y="1120px" /><rect fill="rgb(103,135,73)" height="40px" width="40px" x="1360px" y="1120px" /><rect fill="rgb(103,135,73)" height="40px" width="40px" x="1480px" y="1120px" /><rect fill="rgb(103,135,73)" height="40px" width="40px" x="1520px" y="1120px" /><rect fill="rgb(103,135,73)" height="40px" width="40px" x="1560px" y="1120px" /><rect fill="rgb(163,225,103)" height="40px" width="40px" x="0px" y="1160px" /><rect fill="rgb(163,225,103)" height="40px" width="40px" x="40px" y="1160px" /><rect fill="rgb(163,225,103)" height="40px" width="40px" x="80px" y="1160px" /><rect fill="rgb(163,225,103)" height="40px" width="40px" x="120px" y="1160px" /><rect fill="rgb(163,225,103)" height="40px" width="40px" x="160px" y="1160px" /><rect fill="rgb(163,225,103)" height="40px" width="40px" x="200px" y="1160px" /><rect fill="rgb(163,225,103)" height="40px" width="40px" x="240px" y="1160px" /><rect fill="rgb(163,225,103)" height="40px" width="40px" x="280px" y="1160px" /><rect fill="rgb(163,225,103)" height="40px" width="40px" x="320px" y="1160px" /><rect fill="rgb(163,225,103)" height="40px" width="40px" x="360px" y="1160px" /><rect fill="rgb(163,225,103)" height="40px" width="40px" x="400px" y="1160px" /><rect fill="rgb(120,173,70)" height="40px" width="40px" x="440px" y="1160px" /><rect fill="rgb(120,173,70)" height="40px" width="40px" x="480px" y="1160px" /><rect fill="rgb(103,135,73)" height="40px" width="40px" x="520px" y="1160px" /><rect fill="rgb(103,135,73)" height="40px" width="40px" x="560px" y="1160px" /><rect fill="rgb(103,135,73)" height="40px" width="40px" x="600px" y="1160px" /><rect fill="rgb(103,135,73)" height="40px" width="40px" x="640px" y="1160px" /><rect fill="rgb(103,135,73)" height="40px" width="40px" x="680px" y="1160px" /><rect fill="rgb(103,135,73)" height="40px" width="40px" x="720px" y="1160px" /><rect fill="rgb(120,173,70)" height="40px" width="40px" x="760px" y="1160px" /><rect fill="rgb(120,173,70)" height="40px" width="40px" x="800px" y="1160px" /><rect fill="rgb(120,173,70)" height="40px" width="40px" x="840px" y="1160px" /><rect fill="rgb(120,173,70)" height="40px" width="40px" x="880px" y="1160px" /><rect fill="rgb(120,173,70)" height="40px" width="40px" x="920px" y="1160px" /><rect fill="rgb(120,173,70)" height="40px" width="40px" x="960px" y="1160px" /><rect fill="rgb(103,135,73)" height="40px" width="40px" x="1000px" y="1160px" /><rect fill="rgb(103,135,73)" height="40px" width="40px" x="1040px" y="1160px" /><rect fill="rgb(103,135,73)" height="40px" width="40px" x="1080px" y="1160px" /><rect fill="rgb(103,135,73)" height="40px" width="40px" x="1120px" y="1160px" /><rect fill="rgb(103,135,73)" height="40px" width="40px" x="1160px" y="1160px" /><rect fill="rgb(103,135,73)" height="40px" width="40px" x="1200px" y="1160px" /><rect fill="rgb(103,135,73)" height="40px" width="40px" x="1240px" y="1160px" /><rect fill="rgb(103,135,73)" height="40px" width="40px" x="1280px" y="1160px" /><rect fill="rgb(103,135,73)" height="40px" width="40px" x="1320px" y="1160px" /><rect fill="rgb(103,135,73)" height="40px" width="40px" x="1360px" y="1160px" /><rect fill="rgb(103,135,73)" height="40px" width="40px" x="1400px" y="1160px" /><rect fill="rgb(103,135,73)" height="40px" width="40px" x="1440px" y="1160px" /><rect fill="rgb(103,135,73)" height="40px" width="40px" x="1480px" y="1160px" /><rect fill="rgb(103,135,73)" height="40px" width="40px" x="1520px" y="1160px" /><rect fill="rgb(103,135,73)" height="40px" width="40px" x="1560px" y="1160px" /><rect fill="rgb(163,225,103)" height="40px" width="40px" x="0px" y="1200px" /><rect fill="rgb(163,225,103)" height="40px" width="40px" x="40px" y="1200px" /><rect fill="rgb(163,225,103)" height="40px" width="40px" x="80px" y="1200px" /><rect fill="rgb(163,225,103)" height="40px" width="40px" x="120px" y="1200px" /><rect fill="rgb(163,225,103)" height="40px" width="40px" x="160px" y="1200px" /><rect fill="rgb(163,225,103)" height="40px" width="40px" x="200px" y="1200px" /><rect fill="rgb(163,225,103)" height="40px" width="40px" x="240px" y="1200px" /><rect fill="rgb(163,225,103)" height="40px" width="40px" x="280px" y="1200px" /><rect fill="rgb(163,225,103)" height="40px" width="40px" x="320px" y="1200px" /><rect fill="rgb(163,225,103)" height="40px" width="40px" x="360px" y="1200px" /><rect fill="rgb(120,173,70)" height="40px" width="40px" x="400px" y="1200px" /><rect fill="rgb(120,173,70)" height="40px" width="40px" x="440px" y="1200px" /><rect fill="rgb(120,173,70)" height="40px" width="40px" x="480px" y="1200px" /><rect fill="rgb(120,173,70)" height="40px" width="40px" x="520px" y="1200px" /><rect fill="rgb(120,173,70)" height="40px" width="40px" x="560px" y="1200px" /><rect fill="rgb(120,173,70)" height="40px" width="40px" x="600px" y="1200px" /><rect fill="rgb(103,135,73)" height="40px" width="40px" x="640px" y="1200px" /><rect fill="rgb(103,135,73)" height="40px" width="40px" x="680px" y="1200px" /><rect fill="rgb(103,135,73)" height="40px" width="40px" x="720px" y="1200px" /><rect fill="rgb(103,135,73)" height="40px" width="40px" x="760px" y="1200px" /><rect fill="rgb(103,135,73)" height="40px" width="40px" x="800px" y="1200px" /><rect fill="rgb(103,135,73)" height="40px" width="40px" x="840px" y="1200px" /><rect fill="rgb(103,135,73)" height="40px" width="40px" x="880px" y="1200px" /><rect fill="rgb(103,135,73)" height="40px" width="40px" x="920px" y="1200px" /><rect fill="rgb(103,135,73)" height="40px" width="40px" x="960px" y="1200px" /><rect fill="rgb(103,135,73)" height="40px" width="40px" x="1000px" y="1200px" /><rect fill="rgb(103,135,73)" height="40px" width="40px" x="1040px" y="1200px" /><rect fill="rgb(103,135,73)" height="40px" width="40px" x="1080px" y="1200px" /><rect fill="rgb(103,135,73)" height="40px" width="40px" x="1120px" y="1200px" /><rect fill="rgb(103,135,73)" height="40px" width="40px" x="1160px" y="1200px" /><rect fill="rgb(103,135,73)" height="40px" width="40px" x="1200px" y="1200px" /><rect fill="rgb(103,135,73)" height="40px" width="40px" x="1240px" y="1200px" /><rect fill="rgb(103,135,73)" height="40px" width="40px" x="1280px" y="1200px" /><rect fill="rgb(103,135,73)" height="40px" width="40px" x="1320px" y="1200px" /><rect fill="rgb(103,135,73)" height="40px" width="40px" x="1360px" y="1200px" /><rect fill="rgb(103,135,73)" height="40px" width="40px" x="1400px" y="1200px" /><rect fill="rgb(103,135,73)" height="40px" width="40px" x="1440px" y="1200px" /><rect fill="rgb(103,135,73)" height="40px" width="40px" x="1480px" y="1200px" /><rect fill="rgb(103,135,73)" height="40px" width="40px" x="1520px" y="1200px" /><rect fill="rgb(103,135,73)" height="40px" width="40px" x="1560px" y="1200px" /></svg>